<?xml version="1.0" encoding="utf-8"?>
<!-- Generator: Adobe Illustrator 26.4.1, SVG Export Plug-In . SVG Version: 6.00 Build 0)  -->
<svg version="1.1" id="Layer_1" xmlns="http://www.w3.org/2000/svg" xmlns:xlink="http://www.w3.org/1999/xlink" x="0px" y="0px"
	 viewBox="0 0 48 48" style="enable-background:new 0 0 48 48;" xml:space="preserve">
<g>
	<g>
		<path d="M45.9,22H34c-1.1,0-2-0.9-2-2s0.9-2,2-2h10V8c0-1.1,0.9-2,2-2s2,0.9,2,2v12C47.9,21.1,47.1,22,45.9,22z"/>
	</g>
	<g>
		<path d="M2.1,42c-1.1,0-2-0.9-2-2V28c0-1.1,0.9-2,2-2h12c1.1,0,2,0.9,2,2s-0.9,2-2,2h-10v10C4.1,41.1,3.2,42,2.1,42z"/>
	</g>
	<g>
		<path d="M24,43.9c-5.1,0-10.2-1.9-14.1-5.8l-9.2-8.7c-0.8-0.8-0.8-2-0.1-2.8c0.8-0.8,2-0.8,2.8-0.1l9.3,8.7
			c6.3,6.3,16.4,6.3,22.6,0c1.7-1.7,3-3.7,3.8-6c0.4-1,1.5-1.6,2.6-1.2c1,0.4,1.6,1.5,1.2,2.6c-1,2.8-2.6,5.4-4.7,7.5
			C34.2,42,29.1,43.9,24,43.9z M45.9,22c-0.5,0-1-0.2-1.4-0.5l-9.3-8.7c-1.7-1.7-3.8-3-6-3.8c-4-1.4-8.3-1.2-12.2,0.6
			c-3.8,1.8-6.7,5.1-8.2,9.1c-0.4,1-1.5,1.6-2.6,1.2c-1-0.4-1.6-1.5-1.2-2.6C7,12.3,10.6,8.3,15.4,6c4.8-2.3,10.2-2.6,15.3-0.8
			c2.8,1,5.4,2.6,7.5,4.7l9.2,8.7c0.8,0.8,0.8,2,0.1,2.8C47,21.8,46.5,22,45.9,22z"/>
	</g>
</g>
</svg>
