<?xml version="1.0" encoding="UTF-8"?><svg id="Layer_1" xmlns="http://www.w3.org/2000/svg" xmlns:xlink="http://www.w3.org/1999/xlink" viewBox="0 0 1225.76 256"><defs><style>.cls-1{fill:url(#linear-gradient);}</style><linearGradient id="linear-gradient" x1="127.96" y1="244.72" x2="127.96" y2="8.79" gradientUnits="userSpaceOnUse"><stop offset="0" stop-color="#f7931e"/><stop offset="1" stop-color="#f15a24"/></linearGradient></defs><path class="cls-1" d="M255.92,128c0,23.92-6.6,46.32-18.06,65.49l-55.98-63.52,27.55,12.61-21.6-21.67,30.53,1.83-27.96-12.4,29.14-9.32-30.57-1.45,23.8-19.23-29.02,9.68,15.26-26.53-23.57,19.51,4.63-30.25-14.93,26.71-6.59-29.88-4.28,30.3-16.94-25.47,6.96,29.78-25-17.62,17.24,25.27-29.68-7.41,25.21,17.32-30.35,3.82,29.77,7.05-26.94,14.52,30.31-4.18-19.87,23.27,26.75-14.85-10.12,28.87,19.58-23.51,1,30.58,9.76-28.99,11.98,28.15-1.36-30.56,.91,.93,33.99,91.33c-21.87,17.39-49.52,27.8-79.57,27.8-15.24,0-29.85-2.67-43.42-7.58,20-8.31,26.45-20.21,26.45-20.21-29.01,.46-46.05-29.93-46.05-29.93,21.17-22.57,12.89-53.42,12.89-53.42-24.4,10.59-44.66-4.6-44.66-4.6,7.83-20.72,0-38.68,0-38.68-4.79,11.36-20.19,18.21-33.13,22.07C2.31,55.07,58.8,0,127.92,0S255.92,57.42,255.92,128Z"/><g><path d="M440,143.92c0,7.72-1.13,14.71-3.38,20.96-2.25,6.25-5.5,11.58-9.76,15.99-4.26,4.41-9.49,7.81-15.69,10.2-6.2,2.39-13.26,3.58-21.16,3.58-3.28,0-6.72-.16-10.31-.46-3.59-.31-7.11-.71-10.58-1.2-3.47-.49-6.78-1.07-9.94-1.75-3.16-.67-5.96-1.38-8.39-2.11V54.03l27.18-4.41v48.16c3.04-1.35,6.2-2.39,9.49-3.12s6.81-1.1,10.58-1.1c6.81,0,12.83,1.19,18.06,3.58,5.23,2.39,9.6,5.79,13.13,10.2,3.53,4.41,6.2,9.71,8.03,15.9,1.82,6.19,2.74,13.08,2.74,20.68Zm-27.73-.74c0-17.65-6.45-26.47-19.33-26.47-2.8,0-5.56,.37-8.3,1.1-2.74,.74-4.96,1.65-6.66,2.76v49.82c1.34,.25,3.04,.46,5.11,.64,2.07,.18,4.32,.28,6.75,.28,7.42,0,13.01-2.57,16.78-7.72,3.77-5.15,5.65-11.95,5.65-20.41Z"/><path d="M495.45,93c8.03,0,14.71,.92,20.06,2.76,5.35,1.84,9.64,4.48,12.86,7.9,3.22,3.43,5.5,7.6,6.84,12.5,1.34,4.9,2.01,10.36,2.01,16.36v56.99c-3.89,.86-9.3,1.87-16.23,3.03-6.93,1.16-15.32,1.75-25.17,1.75-6.2,0-11.83-.55-16.87-1.66-5.05-1.1-9.39-2.91-13.04-5.42-3.65-2.51-6.45-5.79-8.39-9.83-1.95-4.04-2.92-9.01-2.92-14.89s1.12-10.42,3.38-14.34c2.25-3.92,5.26-7.05,9.03-9.38,3.77-2.33,8.09-4.01,12.95-5.05,4.86-1.04,9.91-1.56,15.14-1.56,3.53,0,6.66,.16,9.39,.46,2.74,.31,4.95,.71,6.66,1.2v-2.57c0-4.66-1.4-8.39-4.2-11.21-2.8-2.82-7.66-4.23-14.59-4.23-4.62,0-9.18,.34-13.68,1.01-4.5,.67-8.39,1.63-11.67,2.85l-3.47-22.06c1.58-.49,3.56-1.01,5.93-1.56,2.37-.55,4.95-1.04,7.75-1.47,2.8-.43,5.75-.8,8.85-1.1,3.1-.3,6.23-.46,9.39-.46Zm2.19,80.15c2.67,0,5.23-.06,7.66-.18,2.43-.12,4.38-.3,5.84-.55v-20.77c-1.09-.24-2.74-.49-4.92-.74-2.19-.24-4.2-.37-6.02-.37-2.55,0-4.96,.16-7.21,.46-2.25,.31-4.23,.89-5.93,1.75-1.71,.86-3.04,2.02-4.01,3.49-.98,1.47-1.46,3.31-1.46,5.51,0,4.29,1.43,7.26,4.29,8.92,2.86,1.65,6.78,2.48,11.76,2.48Z"/><path d="M560.93,71.49l27.18-4.41v28.49h32.65v22.79h-32.65v34.01c0,5.76,1,10.36,3.01,13.79,2.01,3.43,6.05,5.15,12.13,5.15,2.92,0,5.93-.28,9.03-.83,3.1-.55,5.93-1.32,8.48-2.3l3.83,21.32c-3.28,1.35-6.93,2.51-10.94,3.49s-8.94,1.47-14.77,1.47c-7.42,0-13.56-1.01-18.42-3.03-4.87-2.02-8.76-4.84-11.67-8.46-2.92-3.61-4.96-8-6.11-13.14-1.16-5.15-1.73-10.85-1.73-17.1V71.49Z"/><path d="M641.91,71.49l27.18-4.41v28.49h32.65v22.79h-32.65v34.01c0,5.76,1,10.36,3.01,13.79,2.01,3.43,6.05,5.15,12.13,5.15,2.92,0,5.93-.28,9.03-.83,3.1-.55,5.93-1.32,8.48-2.3l3.83,21.32c-3.28,1.35-6.93,2.51-10.94,3.49s-8.94,1.47-14.77,1.47c-7.42,0-13.56-1.01-18.42-3.03-4.87-2.02-8.76-4.84-11.67-8.46-2.92-3.61-4.96-8-6.11-13.14-1.16-5.15-1.73-10.85-1.73-17.1V71.49Z"/><path d="M762.11,194.1c-7.91-.12-14.32-.98-19.24-2.57s-8.82-3.83-11.67-6.71c-2.86-2.88-4.81-6.37-5.84-10.48-1.03-4.1-1.55-8.73-1.55-13.88V54.03l27.18-4.41v105.33c0,2.45,.18,4.66,.55,6.62,.36,1.96,1.06,3.62,2.1,4.96,1.03,1.35,2.52,2.45,4.47,3.31,1.94,.86,4.56,1.41,7.84,1.65l-3.83,22.61Z"/><path d="M776.89,144.65c0-8.58,1.31-16.08,3.92-22.52,2.61-6.43,6.05-11.79,10.31-16.08,4.25-4.29,9.15-7.54,14.68-9.74,5.53-2.21,11.22-3.31,17.05-3.31,13.62,0,24.38,4.2,32.29,12.59,7.9,8.4,11.86,20.74,11.86,37.04,0,1.59-.06,3.34-.18,5.24-.12,1.9-.25,3.58-.36,5.06h-61.65c.61,5.64,3.22,10.11,7.84,13.42,4.62,3.31,10.82,4.96,18.61,4.96,4.98,0,9.88-.46,14.68-1.38,4.8-.92,8.72-2.05,11.76-3.4l3.65,22.24c-1.46,.74-3.41,1.47-5.84,2.21-2.43,.74-5.14,1.38-8.12,1.93-2.98,.55-6.17,1.01-9.58,1.38-3.41,.37-6.81,.55-10.21,.55-8.64,0-16.14-1.29-22.53-3.86-6.38-2.57-11.67-6.09-15.87-10.57-4.19-4.47-7.3-9.77-9.3-15.9-2.01-6.13-3.01-12.74-3.01-19.85Zm63.84-10.48c-.12-2.33-.52-4.6-1.19-6.8-.67-2.21-1.7-4.16-3.1-5.88-1.4-1.71-3.16-3.12-5.29-4.23-2.13-1.1-4.77-1.65-7.93-1.65s-5.65,.52-7.84,1.56c-2.19,1.04-4.01,2.42-5.47,4.14-1.46,1.72-2.58,3.71-3.38,5.97-.79,2.27-1.37,4.57-1.73,6.89h35.93Z"/><path d="M915.51,172.59c4.98,0,8.51-.49,10.58-1.47,2.07-.98,3.1-2.88,3.1-5.7,0-2.21-1.34-4.14-4.01-5.79-2.68-1.66-6.75-3.52-12.22-5.61-4.26-1.59-8.12-3.25-11.58-4.96-3.47-1.71-6.42-3.77-8.85-6.16-2.43-2.39-4.32-5.24-5.65-8.55-1.34-3.31-2.01-7.29-2.01-11.95,0-9.07,3.34-16.24,10.03-21.51,6.69-5.27,15.87-7.9,27.54-7.9,5.84,0,11.43,.52,16.78,1.56,5.35,1.04,9.6,2.18,12.77,3.4l-4.74,21.32c-3.16-1.1-6.6-2.08-10.31-2.94-3.71-.86-7.87-1.29-12.49-1.29-8.51,0-12.77,2.39-12.77,7.17,0,1.1,.18,2.08,.55,2.94,.36,.86,1.09,1.69,2.19,2.48,1.09,.8,2.58,1.66,4.47,2.58,1.88,.93,4.29,1.95,7.21,3.06,5.96,2.23,10.88,4.42,14.77,6.58,3.89,2.16,6.96,4.5,9.21,7,2.25,2.51,3.83,5.29,4.74,8.35,.91,3.06,1.37,6.6,1.37,10.64,0,9.54-3.56,16.75-10.67,21.65-7.11,4.89-17.18,7.34-30.19,7.34-8.51,0-15.59-.74-21.25-2.21-5.65-1.47-9.58-2.69-11.76-3.68l4.56-22.24c4.62,1.84,9.36,3.28,14.23,4.32,4.86,1.04,9.67,1.56,14.41,1.56Z"/><path d="M976.43,192.26V54.03l27.18-4.41v46.32c1.82-.61,4.16-1.19,7.02-1.75,2.86-.55,5.62-.83,8.3-.83,7.78,0,14.25,1.07,19.42,3.22,5.17,2.15,9.3,5.18,12.4,9.1,3.1,3.92,5.29,8.58,6.57,13.97,1.28,5.39,1.92,11.4,1.92,18.02v54.6h-27.18v-51.29c0-8.82-1.13-15.07-3.38-18.75-2.25-3.68-6.42-5.52-12.49-5.52-2.43,0-4.71,.22-6.84,.64-2.13,.43-4.04,.89-5.75,1.38v73.53h-27.18Z"/><path d="M1113.59,67.63c0,5.03-1.61,8.98-4.83,11.86-3.22,2.88-7.02,4.32-11.4,4.32s-8.18-1.44-11.4-4.32c-3.22-2.88-4.83-6.83-4.83-11.86s1.61-8.98,4.83-11.86c3.22-2.88,7.02-4.32,11.4-4.32s8.18,1.44,11.4,4.32c3.22,2.88,4.83,6.83,4.83,11.86Zm-2.55,124.63h-27.18V95.57h27.18v96.69Z"/><path d="M1225.76,143.92c0,7.48-.91,14.28-2.74,20.41-1.82,6.13-4.5,11.4-8.03,15.81-3.53,4.41-7.91,7.84-13.13,10.29-5.23,2.45-11.25,3.68-18.06,3.68-3.77,0-7.3-.37-10.58-1.1s-6.45-1.78-9.49-3.12v36.4h-27.18V98.88c2.43-.74,5.23-1.44,8.39-2.11,3.16-.67,6.48-1.26,9.94-1.75,3.46-.49,6.99-.89,10.58-1.19,3.58-.3,7.02-.46,10.31-.46,7.9,0,14.96,1.19,21.16,3.58,6.2,2.39,11.43,5.76,15.69,10.11,4.25,4.35,7.51,9.65,9.76,15.9,2.25,6.25,3.38,13.24,3.38,20.96Zm-27.73,.74c0-8.46-1.89-15.23-5.65-20.31-3.77-5.08-9.36-7.63-16.78-7.63-2.43,0-4.68,.09-6.75,.28-2.07,.18-3.77,.4-5.11,.64v49.45c1.7,1.1,3.92,2.02,6.66,2.76,2.74,.74,5.5,1.1,8.3,1.1,12.89,0,19.33-8.76,19.33-26.29Z"/></g></svg>