<?xml version="1.0" encoding="UTF-8"?><svg id="Layer_1" xmlns="http://www.w3.org/2000/svg" xmlns:xlink="http://www.w3.org/1999/xlink" viewBox="0 0 606.05 442.7"><defs><style>.cls-1{fill:url(#linear-gradient);}</style><linearGradient id="linear-gradient" x1="301.14" y1="244.72" x2="301.14" y2="8.79" gradientUnits="userSpaceOnUse"><stop offset="0" stop-color="#f7931e"/><stop offset="1" stop-color="#f15a24"/></linearGradient></defs><path class="cls-1" d="M429.1,128c0,23.92-6.6,46.32-18.06,65.49l-55.98-63.52,27.55,12.61-21.6-21.67,30.53,1.83-27.96-12.4,29.14-9.32-30.57-1.45,23.8-19.23-29.02,9.68,15.26-26.53-23.57,19.51,4.63-30.25-14.93,26.71-6.59-29.88-4.28,30.3-16.94-25.47,6.96,29.78-25-17.62,17.24,25.27-29.68-7.41,25.21,17.32-30.35,3.82,29.77,7.05-26.94,14.52,30.31-4.18-19.87,23.27,26.75-14.85-10.12,28.87,19.58-23.51,1,30.58,9.76-28.99,11.98,28.15-1.36-30.56,.91,.93,33.99,91.33c-21.87,17.39-49.52,27.8-79.57,27.8-15.24,0-29.85-2.67-43.42-7.58,20-8.31,26.45-20.21,26.45-20.21-29.01,.46-46.05-29.93-46.05-29.93,21.17-22.57,12.89-53.42,12.89-53.42-24.4,10.59-44.66-4.6-44.66-4.6,7.83-20.72,0-38.68,0-38.68-4.79,11.36-20.19,18.21-33.13,22.07C175.48,55.07,231.97,0,301.1,0s128,57.42,128,128Z"/><g><path d="M61.78,385.66c0,5.35-.78,10.19-2.34,14.52-1.56,4.33-3.81,8.02-6.76,11.08-2.95,3.06-6.57,5.41-10.87,7.07-4.3,1.66-9.18,2.48-14.66,2.48-2.27,0-4.66-.11-7.14-.32-2.49-.21-4.93-.49-7.33-.83-2.4-.34-4.7-.74-6.89-1.21-2.19-.47-4.13-.96-5.81-1.46v-93.59l18.83-3.06v33.36c2.1-.93,4.3-1.66,6.57-2.16,2.27-.51,4.72-.76,7.33-.76,4.72,0,8.89,.83,12.51,2.48,3.62,1.66,6.65,4.01,9.1,7.07,2.44,3.06,4.3,6.73,5.56,11.01,1.26,4.29,1.9,9.06,1.9,14.32Zm-19.2-.51c0-12.22-4.47-18.34-13.39-18.34-1.94,0-3.85,.26-5.75,.76-1.9,.51-3.43,1.15-4.61,1.91v34.51c.93,.17,2.1,.32,3.54,.45,1.43,.13,2.99,.19,4.67,.19,5.14,0,9.01-1.78,11.62-5.35,2.61-3.57,3.92-8.28,3.92-14.13Z"/><path d="M100.19,350.39c5.56,0,10.19,.64,13.9,1.91,3.71,1.27,6.67,3.1,8.91,5.48,2.23,2.38,3.81,5.26,4.74,8.66,.93,3.4,1.39,7.17,1.39,11.33v39.47c-2.7,.6-6.44,1.3-11.24,2.1-4.8,.81-10.61,1.21-17.44,1.21-4.3,0-8.19-.38-11.69-1.15-3.5-.76-6.51-2.02-9.03-3.76-2.53-1.74-4.47-4.01-5.81-6.81-1.35-2.8-2.02-6.24-2.02-10.31s.78-7.21,2.34-9.93c1.56-2.72,3.64-4.88,6.25-6.49,2.61-1.61,5.6-2.78,8.97-3.5,3.37-.72,6.86-1.08,10.49-1.08,2.44,0,4.61,.11,6.51,.32,1.9,.21,3.43,.49,4.61,.83v-1.78c0-3.23-.97-5.81-2.91-7.77-1.94-1.95-5.31-2.93-10.11-2.93-3.2,0-6.36,.23-9.48,.7-3.12,.47-5.81,1.13-8.09,1.97l-2.4-15.28c1.09-.34,2.46-.7,4.11-1.08,1.64-.38,3.43-.72,5.37-1.02,1.94-.3,3.98-.55,6.13-.76,2.15-.21,4.32-.32,6.51-.32Zm1.52,55.52c1.85,0,3.62-.04,5.31-.13,1.68-.08,3.03-.21,4.04-.38v-14.39c-.76-.17-1.89-.34-3.41-.51-1.52-.17-2.91-.25-4.17-.25-1.77,0-3.43,.11-4.99,.32-1.56,.21-2.93,.62-4.11,1.21-1.18,.59-2.11,1.4-2.78,2.42-.68,1.02-1.01,2.29-1.01,3.82,0,2.97,.99,5.03,2.97,6.18,1.98,1.15,4.69,1.72,8.15,1.72Z"/><path d="M145.54,335.49l18.82-3.06v19.74h22.62v15.79h-22.62v23.56c0,3.99,.7,7.17,2.08,9.55,1.39,2.38,4.19,3.57,8.4,3.57,2.02,0,4.11-.19,6.25-.57,2.15-.38,4.11-.91,5.88-1.59l2.65,14.77c-2.27,.94-4.8,1.74-7.58,2.42s-6.19,1.02-10.23,1.02c-5.14,0-9.39-.7-12.76-2.1-3.37-1.4-6.06-3.35-8.09-5.86-2.02-2.5-3.43-5.54-4.23-9.1-.8-3.57-1.2-7.51-1.2-11.84v-56.28Z"/><path d="M201.64,335.49l18.82-3.06v19.74h22.62v15.79h-22.62v23.56c0,3.99,.7,7.17,2.08,9.55,1.39,2.38,4.19,3.57,8.4,3.57,2.02,0,4.11-.19,6.25-.57,2.15-.38,4.11-.91,5.88-1.59l2.65,14.77c-2.27,.94-4.8,1.74-7.58,2.42-2.78,.68-6.19,1.02-10.23,1.02-5.14,0-9.39-.7-12.76-2.1-3.37-1.4-6.06-3.35-8.09-5.86-2.02-2.5-3.43-5.54-4.23-9.1-.8-3.57-1.2-7.51-1.2-11.84v-56.28Z"/><path d="M284.9,420.42c-5.48-.09-9.92-.68-13.33-1.78s-6.11-2.65-8.09-4.65c-1.98-1.99-3.33-4.41-4.04-7.26-.72-2.84-1.07-6.05-1.07-9.61v-73.73l18.83-3.06v72.96c0,1.7,.13,3.23,.38,4.58,.25,1.36,.74,2.5,1.45,3.44,.71,.93,1.75,1.7,3.1,2.29,1.35,.59,3.16,.98,5.43,1.15l-2.65,15.66Z"/><path d="M295.13,386.17c0-5.94,.9-11.14,2.72-15.6,1.81-4.46,4.19-8.17,7.14-11.14,2.95-2.97,6.34-5.22,10.17-6.75,3.83-1.53,7.77-2.29,11.81-2.29,9.43,0,16.89,2.91,22.36,8.72,5.47,5.82,8.21,14.37,8.21,25.66,0,1.1-.04,2.31-.13,3.63-.08,1.32-.17,2.48-.25,3.5h-42.7c.42,3.91,2.23,7,5.43,9.29,3.2,2.29,7.5,3.44,12.89,3.44,3.45,0,6.84-.32,10.17-.96,3.33-.64,6.04-1.42,8.15-2.36l2.53,15.41c-1.01,.51-2.36,1.02-4.04,1.53-1.69,.51-3.56,.96-5.62,1.34-2.07,.38-4.28,.7-6.63,.96-2.36,.25-4.72,.38-7.08,.38-5.98,0-11.18-.89-15.6-2.67-4.42-1.78-8.09-4.22-10.99-7.32-2.91-3.1-5.05-6.77-6.44-11.01-1.39-4.24-2.08-8.83-2.08-13.75Zm44.22-7.26c-.08-1.61-.36-3.18-.82-4.71-.46-1.53-1.18-2.88-2.15-4.07-.97-1.19-2.19-2.16-3.66-2.93-1.47-.76-3.31-1.15-5.5-1.15s-3.92,.36-5.43,1.08c-1.52,.72-2.78,1.68-3.79,2.86-1.01,1.19-1.79,2.57-2.34,4.14-.55,1.57-.95,3.16-1.2,4.77h24.89Z"/><path d="M391.15,405.52c3.45,0,5.89-.34,7.33-1.02,1.43-.68,2.15-1.99,2.15-3.95,0-1.53-.93-2.86-2.78-4.01-1.85-1.15-4.67-2.44-8.46-3.88-2.95-1.1-5.62-2.25-8.02-3.44-2.4-1.19-4.44-2.61-6.13-4.27-1.69-1.66-2.99-3.63-3.92-5.92-.93-2.29-1.39-5.05-1.39-8.28,0-6.28,2.32-11.25,6.95-14.9,4.63-3.65,10.99-5.48,19.08-5.48,4.04,0,7.92,.36,11.62,1.08,3.71,.72,6.65,1.51,8.84,2.36l-3.28,14.77c-2.19-.76-4.57-1.44-7.14-2.04-2.57-.59-5.45-.89-8.65-.89-5.9,0-8.84,1.66-8.84,4.97,0,.76,.13,1.44,.38,2.04,.25,.6,.76,1.17,1.52,1.72,.76,.55,1.79,1.15,3.1,1.79,1.3,.64,2.97,1.35,4.99,2.12,4.13,1.54,7.54,3.06,10.23,4.56,2.69,1.5,4.82,3.12,6.38,4.85,1.56,1.74,2.65,3.66,3.28,5.78,.63,2.12,.95,4.57,.95,7.37,0,6.61-2.46,11.61-7.39,14.99-4.93,3.39-11.9,5.08-20.91,5.08-5.9,0-10.8-.51-14.72-1.53-3.92-1.02-6.63-1.87-8.15-2.55l3.16-15.41c3.2,1.27,6.48,2.27,9.85,2.99,3.37,.72,6.7,1.08,9.98,1.08Z"/><path d="M433.35,419.15v-95.75l18.83-3.06v32.09c1.26-.42,2.88-.83,4.86-1.21,1.98-.38,3.89-.57,5.75-.57,5.39,0,9.87,.74,13.45,2.23,3.58,1.49,6.44,3.59,8.59,6.3,2.15,2.72,3.66,5.94,4.55,9.68,.88,3.74,1.33,7.89,1.33,12.48v37.82h-18.82v-35.53c0-6.11-.78-10.44-2.34-12.99-1.56-2.55-4.44-3.82-8.65-3.82-1.69,0-3.27,.15-4.74,.45-1.47,.3-2.8,.62-3.98,.96v50.93h-18.83Z"/><path d="M528.35,332.82c0,3.48-1.12,6.22-3.35,8.21-2.23,2-4.86,2.99-7.9,2.99s-5.67-1-7.9-2.99c-2.23-1.99-3.35-4.73-3.35-8.21s1.12-6.22,3.35-8.21c2.23-1.99,4.86-2.99,7.9-2.99s5.66,1,7.9,2.99c2.23,2,3.35,4.73,3.35,8.21Zm-1.77,86.33h-18.83v-66.98h18.83v66.98Z"/><path d="M606.05,385.66c0,5.18-.63,9.89-1.9,14.13-1.26,4.25-3.12,7.89-5.56,10.95-2.44,3.06-5.48,5.43-9.1,7.13-3.62,1.7-7.79,2.55-12.51,2.55-2.61,0-5.05-.25-7.33-.76s-4.47-1.23-6.57-2.16v25.21h-18.83v-88.24c1.68-.51,3.62-1,5.81-1.46,2.19-.47,4.49-.87,6.89-1.21,2.4-.34,4.84-.61,7.33-.83,2.48-.21,4.86-.32,7.14-.32,5.47,0,10.36,.83,14.66,2.48,4.3,1.66,7.92,3.99,10.87,7,2.95,3.01,5.2,6.68,6.76,11.01,1.56,4.33,2.34,9.17,2.34,14.52Zm-19.2,.51c0-5.86-1.31-10.55-3.92-14.07-2.61-3.52-6.49-5.28-11.62-5.28-1.69,0-3.24,.06-4.67,.19-1.43,.13-2.61,.28-3.54,.45v34.25c1.18,.76,2.72,1.4,4.61,1.91,1.89,.51,3.81,.76,5.75,.76,8.93,0,13.39-6.07,13.39-18.21Z"/></g></svg>