<?xml version="1.0" encoding="UTF-8"?><svg id="Layer_1" xmlns="http://www.w3.org/2000/svg" xmlns:xlink="http://www.w3.org/1999/xlink" viewBox="0 0 256 256"><defs><style>.cls-1{fill:url(#linear-gradient);}</style><linearGradient id="linear-gradient" x1="128.04" y1="244.72" x2="128.04" y2="8.79" gradientUnits="userSpaceOnUse"><stop offset="0" stop-color="#f7931e"/><stop offset="1" stop-color="#f15a24"/></linearGradient></defs><path class="cls-1" d="M255.99,128c0,23.92-6.6,46.32-18.06,65.49l-55.98-63.52,27.55,12.61-21.6-21.67,30.53,1.83-27.96-12.4,29.14-9.32-30.57-1.45,23.8-19.23-29.02,9.68,15.26-26.53-23.57,19.51,4.63-30.25-14.93,26.71-6.59-29.88-4.28,30.3-16.94-25.47,6.96,29.78-25-17.62,17.24,25.27-29.68-7.41,25.21,17.32-30.35,3.82,29.77,7.05-26.94,14.52,30.31-4.18-19.87,23.27,26.75-14.85-10.12,28.87,19.58-23.51,1,30.58,9.76-28.99,11.98,28.15-1.36-30.56,.91,.93,33.99,91.33c-21.87,17.39-49.52,27.8-79.57,27.8-15.24,0-29.85-2.67-43.42-7.58,20-8.31,26.45-20.21,26.45-20.21-29.01,.46-46.05-29.93-46.05-29.93,21.17-22.57,12.89-53.42,12.89-53.42-24.4,10.59-44.66-4.6-44.66-4.6,7.83-20.72,0-38.68,0-38.68C28.41,112.94,13.01,119.78,.08,123.64,2.38,55.07,58.87,0,127.99,0s128,57.42,128,128Z"/></svg>