<?xml version="1.0" encoding="UTF-8"?><svg id="Layer_1" xmlns="http://www.w3.org/2000/svg" xmlns:xlink="http://www.w3.org/1999/xlink" viewBox="0 0 256 256"><defs><style>.cls-1,.cls-2{fill:none;}.cls-3{fill:url(#linear-gradient);}.cls-4{fill:#a6ce39;}.cls-4,.cls-5,.cls-6,.cls-7{mix-blend-mode:multiply;}.cls-5{fill:#ffd400;}.cls-6{fill:#ed1c24;}.cls-7{fill:#00bac6;}.cls-2{stroke:url(#Bugaboo);stroke-miterlimit:10;stroke-width:8px;}</style><linearGradient id="linear-gradient" x1="128.04" y1="229.27" x2="128.04" y2="24.58" gradientUnits="userSpaceOnUse"><stop offset="0" stop-color="#f7931e"/><stop offset="1" stop-color="#f15a24"/></linearGradient><pattern id="Bugaboo" x="0" y="0" width="334.21" height="190.18" patternUnits="userSpaceOnUse" viewBox="0 0 334.21 190.18"><g><rect class="cls-1" width="334.21" height="190.18"/><g><path class="cls-7" d="M312.57,228.07c-1.04,2.91-4.25,4.42-7.17,3.38-.67-.24-16.58-8.97-32.58-16.6-.45,1.04-1.02,2.03-1.72,2.9,0,0,46.42,49.04,47.57,50.41,.96,1.14,1.42,2.59,1.3,4.08-.13,1.5-.83,2.84-1.97,3.81-1.15,.96-2.6,1.43-4.09,1.3-1.49-.13-2.84-.83-3.81-1.97-1.14-1.36-42.26-54.73-42.26-54.73-1.18,.74-2.47,1.29-3.85,1.62,0,0,1.09,30.92,1.05,32.47-.04,1.5-.66,2.89-1.75,3.92-1.08,1.03-2.5,1.57-4,1.54-.11,0-.22,0-.33-.02-2.95-.25-5.2-2.77-5.13-5.73,.04-1.54,4.53-32.11,4.53-32.11-1.12-.24-2.19-.61-3.18-1.12,0,0-25.19,44.38-26.41,46.15-1.14,1.65-3.09,2.57-5.09,2.4-.97-.08-1.9-.42-2.71-.97-1.23-.85-2.06-2.13-2.33-3.6-.27-1.47,.05-2.96,.9-4.19,1.22-1.76,33.46-41.18,33.46-41.18-.42-.34-.82-.72-1.2-1.12-10.19,10.77-25.46,26.88-26.31,27.59-2.36,1.99-5.9,1.7-7.9-.67-1.99-2.36-1.69-5.9,.67-7.89,.85-.71,19.42-13.14,31.75-21.38-.12-.21-.26-.42-.37-.63,0,0-45.47,18.23-47.22,18.79-.71,.23-1.44,.31-2.18,.25-2.26-.19-4.17-1.71-4.86-3.87-.46-1.42-.33-2.94,.35-4.27,.69-1.33,1.85-2.32,3.27-2.77,1.74-.56,49.34-11.99,49.34-11.99-.17-1.02-.22-2.07-.13-3.15,.03-.29,.07-.58,.12-.87,0,0-37.52-6.63-39.4-7.17-2.97-.84-4.7-3.95-3.86-6.92,.73-2.57,3.19-4.28,5.86-4.05,.36,.03,.72,.09,1.06,.19,1.88,.54,37.31,14.63,37.31,14.63,.67-1.48,1.61-2.81,2.75-3.92,0,0-44.09-46.31-45.48-47.95-.97-1.14-1.43-2.6-1.3-4.09,.13-1.49,.83-2.84,1.97-3.81,1.15-.96,2.6-1.43,4.09-1.3,1.49,.13,2.84,.83,3.81,1.97,1.39,1.64,38.94,53.56,38.94,53.56,.54-.35,1.11-.64,1.69-.91-7.19-15.74-19.53-42.79-19.76-43.49-1-2.92,.56-6.12,3.48-7.12,2.92-1,6.12,.55,7.12,3.48,.24,.69,7.27,29.59,11.36,46.4,.89-.22,1.8-.38,2.75-.4,0,0-1.11-31.08-.95-32.98,.26-3.08,2.98-5.37,6.06-5.11,3.08,.26,5.37,2.98,5.11,6.06-.16,1.9-6.51,32.49-6.51,32.49,1.12,.31,2.16,.76,3.13,1.34,0,0,26.37-46.34,27.59-48.12,1.14-1.66,3.09-2.59,5.1-2.42,.96,.08,1.89,.41,2.69,.96,2.55,1.75,3.2,5.24,1.46,7.79-1.22,1.79-34.82,43.27-34.82,43.27,1.43,1.28,2.57,2.87,3.31,4.65,0,0,45.03-11.79,46.58-12.08,.5-.09,1.01-.12,1.51-.07,2.5,.21,4.57,2.08,5.03,4.55,.28,1.47-.04,2.96-.88,4.2-.85,1.23-2.12,2.06-3.59,2.34-1.55,.29-47.68,6.42-47.68,6.42,0,.21,0,.42-.03,.64-.05,.56-.15,1.1-.26,1.64,17.11,4.53,34.93,8.16,35.61,8.4,2.91,1.05,4.43,4.26,3.38,7.17Zm-42.31-17.51c.43-5.09-3.36-9.58-8.45-10.01-5.09-.43-9.58,3.36-10.01,8.45-.43,5.09,3.36,9.58,8.45,10.01,5.09,.43,9.58-3.36,10.01-8.45Z"/><path class="cls-5" d="M257.13,219.09c-2.3-3.97-.95-9.08,3.03-11.38,.92-.53,24.68-9.59,48.69-20.45-.75-1.51-1.32-3.1-1.65-4.74,0,0-87.74,5.72-90.4,5.72-2.22,0-4.31-.87-5.89-2.44-1.58-1.58-2.44-3.66-2.44-5.89,0-2.23,.87-4.32,2.44-5.89,1.57-1.57,3.67-2.44,5.89-2.44,2.64,0,90.22,4.46,90.22,4.46,.29-2.04,.9-4.05,1.85-5.93,0,0-36.16-28.4-37.88-29.93-1.66-1.48-2.65-3.51-2.78-5.73-.13-2.22,.61-4.36,2.09-6.02,.11-.12,.22-.25,.34-.36,3.11-3.11,8.13-3.25,11.42-.33,1.7,1.52,32.13,35.93,32.13,35.93,1.35-1.05,2.8-1.9,4.33-2.54,0,0-26.27-71.15-27.11-74.23-.78-2.88,.04-5.97,2.15-8.08,1.02-1.02,2.3-1.76,3.7-2.14,2.15-.58,4.39-.3,6.32,.81,1.93,1.11,3.32,2.9,3.9,5.04,.83,3.08,14.71,77.48,14.71,77.48,.8-.16,1.61-.24,2.42-.3-2.46-21.9-6.13-54.69-6.13-56.33,0-4.59,3.73-8.33,8.33-8.33s8.33,3.74,8.33,8.33c0,1.65-3.69,34.66-6.15,56.56,.36,.06,.72,.1,1.08,.18,0,0,22.88-69.13,23.92-71.64,.42-1.02,1.03-1.94,1.81-2.72,2.39-2.39,5.94-3.1,9.06-1.81,2.06,.85,3.66,2.44,4.52,4.5,.86,2.06,.86,4.32,.01,6.38-1.04,2.52-33.67,67.55-33.67,67.55,1.32,.79,2.57,1.73,3.71,2.87,.31,.31,.59,.64,.87,.96,0,0,43.5-36.26,45.91-37.88,3.8-2.57,8.99-1.55,11.56,2.25,2.22,3.3,1.8,7.73-1.01,10.54-.38,.38-.79,.72-1.24,1.02-2.41,1.62-52.39,28.36-52.39,28.36,1.04,2.18,1.65,4.52,1.82,6.88,0,0,78.48-5.7,81.66-5.7,2.22,0,4.32,.87,5.89,2.44,1.58,1.58,2.44,3.66,2.44,5.89,0,2.23-.87,4.32-2.44,5.89-1.57,1.57-3.67,2.44-5.89,2.44-3.19,0-81.78-7.11-81.78-7.11-.12,.94-.33,1.88-.59,2.8,24.77,6.92,67.33,18.84,68.35,19.23,4.28,1.66,6.42,6.5,4.76,10.78-1.66,4.28-6.49,6.41-10.78,4.75-1.01-.39-40.58-20.1-63.58-31.57-.6,1.22-1.3,2.41-2.19,3.5,0,0,36.37,28.53,38.37,30.53,3.25,3.25,3.25,8.53,0,11.78-3.24,3.25-8.53,3.24-11.78,0-2-2.01-30.66-38.54-30.66-38.54-1.42,.97-2.94,1.73-4.52,2.28,0,0,22.62,56.17,23.48,59.27,.8,2.88-.03,5.99-2.14,8.11-1.01,1.01-2.28,1.75-3.67,2.13-4.43,1.22-9.02-1.38-10.24-5.81-.86-3.1-11.04-62.83-11.04-62.83-2.83,.39-5.72,.17-8.46-.7,0,0-29.76,62.45-30.92,64.49-.37,.66-.83,1.26-1.36,1.79-2.63,2.63-6.74,3.2-9.99,1.35-1.93-1.09-3.33-2.88-3.92-5.02-.59-2.14-.31-4.39,.79-6.33,1.15-2.04,38.4-60.32,38.4-60.32-.24-.21-.48-.41-.7-.64-.59-.59-1.11-1.22-1.61-1.87-21.54,15.09-41.36,31.21-42.28,31.75-3.98,2.3-9.08,.95-11.39-3.03Zm59.05-30.63c5.37,5.37,14.1,5.37,19.46,0,5.37-5.37,5.37-14.1,0-19.47-5.37-5.37-14.1-5.37-19.47,0-5.36,5.36-5.37,14.1,0,19.47Z"/><path class="cls-4" d="M436.58,273.84c-2.89,1.99-6.86,1.26-8.86-1.64-.46-.67-16.51-29.86-26.21-47.52-1.11,.66-2.29,1.19-3.51,1.54,0,0,6.93,32.68,7.09,34.7,.13,1.7-.41,3.34-1.51,4.63-1.11,1.29-2.65,2.08-4.34,2.21-1.7,.13-3.34-.4-4.63-1.51-1.29-1.1-2.07-2.65-2.21-4.34-.15-2.01,.69-35.16,.69-35.16-1.58-.1-3.14-.45-4.63-1.06,0,0-19.51,29.25-20.57,30.65-1.03,1.36-2.52,2.23-4.21,2.46-1.69,.23-3.36-.21-4.71-1.24-.1-.08-.2-.15-.3-.24-2.55-2.19-2.96-6-.93-8.69,1.06-1.39,25.48-26.62,25.48-26.62-.88-.96-1.61-2.02-2.19-3.15,0,0-52.68,24.24-54.98,25.06-2.15,.77-4.55,.32-6.29-1.16-.84-.72-1.48-1.65-1.85-2.69-.57-1.6-.49-3.33,.24-4.87,.73-1.54,2.01-2.7,3.61-3.27,2.29-.82,58.18-15.8,58.18-15.8-.17-.6-.28-1.21-.37-1.83-16.54,3.17-41.32,7.91-42.58,8.01-3.5,.27-6.57-2.35-6.84-5.85-.27-3.5,2.35-6.57,5.85-6.84,1.25-.1,26.64,.76,43.48,1.34,.03-.28,.04-.55,.08-.83,0,0-28.27-5.02-30.25-5.66-.81-.26-1.54-.67-2.18-1.22-1.96-1.68-2.71-4.35-1.92-6.8,.52-1.62,1.65-2.94,3.16-3.71,1.52-.78,3.24-.91,4.86-.39,1.98,.64,27.71,13.34,27.71,13.34,.53-1.05,1.17-2.06,1.96-2.99,.22-.26,.46-.49,.68-.72,0,0-30.21-31.01-31.59-32.75-2.18-2.75-1.72-6.76,1.04-8.95,2.38-1.88,5.78-1.83,8.09,.15,.31,.27,.6,.56,.85,.88,1.38,1.74,24.72,38.25,24.72,38.25,1.6-.92,3.34-1.53,5.14-1.79,0,0-7.26-37.17-7.45-39.59-.13-1.7,.4-3.34,1.51-4.63,1.11-1.29,2.65-2.08,4.34-2.21,1.7-.13,3.34,.4,4.63,1.51,1.29,1.1,2.08,2.65,2.21,4.34,.19,2.43-2.31,40.44-2.31,40.44,.73,.04,1.45,.14,2.17,.29,3.81-19.29,10.37-52.44,10.61-53.24,1.02-3.36,4.57-5.28,7.93-4.27,3.36,1.01,5.27,4.57,4.26,7.93-.24,.79-12.92,32.12-20.3,50.34,.97,.39,1.92,.85,2.8,1.46,0,0,13.42-22.25,14.82-23.89,2.28-2.67,6.31-2.98,8.98-.7,2.67,2.28,2.98,6.31,.7,8.98-1.41,1.65-21.38,18.49-21.38,18.49,.83,1.03,1.49,2.14,2,3.31,0,0,38.08-19.13,40.39-19.96,2.15-.78,4.57-.33,6.31,1.15,.83,.71,1.47,1.63,1.84,2.67,1.19,3.3-.52,6.96-3.82,8.15-2.31,.84-43.84,10.69-43.84,10.69,.47,2.13,.47,4.35-.03,6.49,0,0,34.95,12.33,36.57,13.09,.52,.25,1.01,.56,1.44,.93,2.16,1.85,2.83,4.95,1.62,7.53-.72,1.54-2,2.71-3.6,3.29-1.6,.58-3.33,.5-4.87-.22-1.63-.76-33.84-19.04-33.84-19.04-.14,.19-.29,.39-.45,.57-.42,.48-.87,.92-1.33,1.33,12.78,15.53,33.97,41.29,34.44,41.96,1.99,2.9,1.26,6.87-1.63,8.86Zm-34.58-54.81c3.77-4.41,3.25-11.06-1.15-14.83-4.41-3.77-11.07-3.26-14.84,1.15-3.78,4.41-3.26,11.07,1.15,14.84,4.41,3.77,11.06,3.25,14.84-1.16Z"/><path class="cls-6" d="M352.38,138.81c-2.08,1.06-4.64,.24-5.71-1.84-.24-.48-8.33-21.15-13.22-33.66-.79,.34-1.62,.59-2.45,.71,0,0,1.76,22.19,1.69,23.54-.06,1.13-.56,2.17-1.4,2.93-.84,.76-1.93,1.14-3.06,1.08-1.13-.06-2.17-.55-2.93-1.4-.76-.84-1.14-1.93-1.08-3.06,.07-1.34,3.49-23.17,3.49-23.17-1.03-.2-2.04-.57-2.97-1.1,0,0-15.41,17.64-16.23,18.48-.8,.81-1.86,1.25-2.99,1.26-1.13,0-2.2-.43-3.01-1.22-.06-.06-.12-.12-.17-.18-1.5-1.66-1.44-4.22,.14-5.82,.82-.83,19.13-15.39,19.13-15.39-.5-.71-.89-1.47-1.17-2.27,0,0-36.9,11.47-38.49,11.82-1.48,.32-3.04-.18-4.05-1.31-.49-.55-.83-1.22-.99-1.94-.24-1.11-.03-2.24,.58-3.2,.62-.95,1.56-1.61,2.67-1.85,1.59-.34,39.8-5.42,39.8-5.42-.06-.41-.08-.82-.08-1.24-11.21,.67-27.99,1.66-28.82,1.62-2.34-.12-4.14-2.12-4.02-4.46,.12-2.34,2.12-4.14,4.46-4.02,.84,.04,17.53,2.8,28.61,4.63,.04-.18,.07-.36,.12-.54,0,0-18.25-5.75-19.5-6.35-.51-.24-.96-.58-1.33-.99-1.15-1.28-1.42-3.11-.68-4.66,.49-1.02,1.34-1.8,2.41-2.18,1.07-.38,2.22-.32,3.24,.16,1.25,.59,17.15,11.2,17.15,11.2,.44-.65,.95-1.26,1.56-1.81,.17-.15,.34-.28,.51-.42,0,0-17.29-23.09-18.05-24.36-1.2-2-.55-4.62,1.46-5.82,1.74-1.04,3.98-.71,5.33,.79,.18,.2,.35,.42,.49,.66,.76,1.27,13.04,27.41,13.04,27.41,1.14-.47,2.34-.72,3.55-.74,0,0-1.59-25.18-1.51-26.8,.06-1.13,.56-2.17,1.4-2.93,.84-.76,1.93-1.15,3.06-1.08,1.13,.06,2.17,.55,2.93,1.4,.76,.84,1.14,1.93,1.09,3.06-.08,1.62-5.01,26.52-5.01,26.52,.48,.09,.94,.22,1.41,.38,4.18-12.42,11.37-33.75,11.6-34.26,.96-2.13,3.47-3.09,5.61-2.13,2.13,.96,3.09,3.47,2.13,5.61-.23,.5-11.3,20.11-17.75,31.51,.61,.34,1.19,.73,1.72,1.21,0,0,10.78-13.55,11.85-14.51,1.74-1.56,4.43-1.43,5.99,.31,1.56,1.74,1.42,4.42-.31,5.99-1.07,.97-15.72,10.37-15.72,10.37,.46,.75,.8,1.54,1.04,2.36,0,0,26.81-9.35,28.41-9.71,1.49-.33,3.05,.17,4.07,1.31,.49,.54,.83,1.21,.98,1.92,.5,2.28-.94,4.55-3.23,5.06-1.6,.35-29.88,3.29-29.88,3.29,.12,1.45-.07,2.91-.58,4.28,0,0,22.03,11.16,23.04,11.8,.32,.21,.62,.46,.87,.74,1.27,1.41,1.45,3.51,.42,5.12-.61,.95-1.56,1.62-2.66,1.86-1.11,.24-2.24,.04-3.2-.57-1.01-.64-20.71-15.5-20.71-15.5-.11,.11-.22,.23-.34,.34-.32,.28-.65,.53-.99,.77,7.1,11.36,18.89,30.21,19.14,30.7,1.06,2.08,.24,4.65-1.84,5.71Zm-18.12-39.2c2.87-2.59,3.1-7.03,.52-9.9-2.59-2.87-7.03-3.11-9.9-.52-2.87,2.59-3.11,7.03-.52,9.91,2.59,2.87,7.03,3.1,9.9,.51Z"/></g><g><path class="cls-5" d="M90.02,314.18c-2.3-3.97-.95-9.08,3.03-11.38,.92-.53,24.68-9.59,48.69-20.45-.75-1.51-1.32-3.1-1.65-4.74,0,0-87.74,5.72-90.4,5.72-2.22,0-4.31-.87-5.89-2.44-1.58-1.58-2.44-3.66-2.44-5.89,0-2.23,.87-4.32,2.44-5.89,1.57-1.57,3.67-2.44,5.89-2.44,2.64,0,90.22,4.46,90.22,4.46,.29-2.05,.9-4.05,1.85-5.93,0,0-36.16-28.4-37.88-29.93-1.66-1.48-2.65-3.51-2.78-5.73-.13-2.22,.61-4.36,2.09-6.02,.11-.12,.22-.25,.34-.36,3.11-3.11,8.13-3.25,11.42-.33,1.7,1.52,32.13,35.93,32.13,35.93,1.35-1.05,2.8-1.9,4.33-2.54,0,0-26.27-71.15-27.11-74.23-.78-2.88,.04-5.97,2.15-8.08,1.02-1.02,2.3-1.76,3.7-2.14,2.15-.58,4.39-.3,6.32,.81,1.93,1.11,3.32,2.9,3.9,5.04,.83,3.08,14.71,77.48,14.71,77.48,.8-.16,1.61-.24,2.42-.3-2.46-21.9-6.13-54.69-6.13-56.33,0-4.59,3.73-8.33,8.33-8.33s8.33,3.74,8.33,8.33c0,1.65-3.69,34.66-6.15,56.56,.36,.06,.72,.1,1.08,.18,0,0,22.88-69.13,23.92-71.64,.42-1.02,1.03-1.94,1.81-2.72,2.39-2.39,5.94-3.1,9.06-1.81,2.06,.85,3.66,2.44,4.52,4.5,.86,2.06,.86,4.32,.01,6.38-1.04,2.52-33.67,67.55-33.67,67.55,1.32,.79,2.57,1.73,3.71,2.87,.31,.31,.59,.64,.87,.96,0,0,43.5-36.26,45.91-37.88,3.8-2.57,8.99-1.55,11.56,2.25,2.22,3.3,1.8,7.73-1.01,10.54-.38,.38-.79,.72-1.24,1.02-2.41,1.62-52.39,28.36-52.39,28.36,1.04,2.18,1.65,4.52,1.82,6.88,0,0,78.48-5.7,81.66-5.7,2.22,0,4.32,.87,5.89,2.44,1.58,1.58,2.44,3.66,2.44,5.89,0,2.23-.87,4.32-2.44,5.89-1.57,1.57-3.67,2.44-5.89,2.44-3.19,0-81.78-7.11-81.78-7.11-.12,.94-.33,1.88-.59,2.8,24.77,6.92,67.33,18.84,68.35,19.23,4.28,1.66,6.42,6.5,4.76,10.78-1.66,4.28-6.49,6.41-10.78,4.75-1.01-.39-40.58-20.1-63.58-31.57-.6,1.22-1.3,2.41-2.19,3.5,0,0,36.38,28.53,38.37,30.53,3.25,3.25,3.25,8.53,0,11.78-3.24,3.25-8.53,3.24-11.78,0-2-2.01-30.66-38.54-30.66-38.54-1.42,.97-2.94,1.73-4.52,2.28,0,0,22.62,56.17,23.48,59.27,.8,2.88-.03,5.99-2.14,8.11-1.01,1.01-2.28,1.75-3.67,2.13-4.43,1.22-9.02-1.38-10.24-5.81-.86-3.1-11.04-62.83-11.04-62.83-2.83,.39-5.72,.17-8.46-.7,0,0-29.76,62.45-30.92,64.49-.37,.66-.83,1.26-1.36,1.79-2.63,2.63-6.74,3.2-9.99,1.35-1.93-1.09-3.33-2.88-3.92-5.02-.59-2.14-.31-4.39,.79-6.33,1.15-2.04,38.4-60.32,38.4-60.32-.24-.21-.48-.41-.7-.64-.59-.59-1.11-1.22-1.61-1.87-21.54,15.09-41.36,31.21-42.28,31.75-3.98,2.3-9.08,.95-11.39-3.03Zm59.05-30.63c5.37,5.37,14.1,5.37,19.46,0,5.37-5.37,5.37-14.1,0-19.47-5.37-5.37-14.1-5.37-19.47,0-5.36,5.36-5.37,14.1,0,19.47Z"/><path class="cls-6" d="M185.28,233.9c-2.08,1.06-4.64,.24-5.71-1.84-.24-.48-8.33-21.15-13.22-33.66-.79,.34-1.62,.59-2.46,.71,0,0,1.76,22.19,1.69,23.54-.06,1.13-.56,2.17-1.4,2.93-.84,.76-1.93,1.14-3.06,1.08-1.13-.06-2.17-.55-2.93-1.4-.76-.84-1.14-1.93-1.08-3.06,.07-1.34,3.49-23.17,3.49-23.17-1.03-.2-2.04-.57-2.97-1.1,0,0-15.41,17.64-16.23,18.48-.8,.81-1.86,1.25-2.99,1.26-1.13,0-2.2-.43-3.01-1.22-.06-.06-.12-.12-.17-.18-1.5-1.67-1.44-4.22,.14-5.82,.82-.83,19.13-15.39,19.13-15.39-.5-.71-.89-1.47-1.17-2.27,0,0-36.89,11.47-38.48,11.82-1.48,.32-3.04-.18-4.05-1.31-.49-.55-.83-1.22-.99-1.94-.24-1.11-.03-2.24,.58-3.2,.61-.95,1.56-1.61,2.67-1.85,1.59-.34,39.8-5.42,39.8-5.42-.06-.41-.08-.82-.09-1.24-11.21,.67-27.98,1.66-28.82,1.62-2.34-.12-4.14-2.12-4.02-4.46,.12-2.34,2.12-4.14,4.46-4.02,.84,.04,17.53,2.8,28.61,4.63,.04-.18,.07-.36,.12-.54,0,0-18.25-5.75-19.5-6.35-.51-.24-.96-.58-1.33-.99-1.15-1.28-1.42-3.11-.68-4.66,.49-1.02,1.34-1.8,2.41-2.18,1.07-.38,2.22-.32,3.24,.16,1.25,.59,17.16,11.2,17.16,11.2,.44-.65,.95-1.26,1.56-1.81,.17-.15,.34-.28,.51-.42,0,0-17.29-23.09-18.05-24.36-1.2-2-.55-4.62,1.46-5.82,1.74-1.04,3.98-.71,5.33,.79,.18,.2,.35,.42,.49,.66,.76,1.27,13.04,27.41,13.04,27.41,1.14-.47,2.34-.72,3.55-.74,0,0-1.59-25.18-1.51-26.8,.06-1.13,.56-2.17,1.4-2.93,.84-.76,1.93-1.15,3.06-1.08,1.13,.06,2.17,.55,2.93,1.4,.76,.84,1.14,1.93,1.09,3.06-.08,1.62-5.01,26.52-5.01,26.52,.48,.09,.94,.22,1.41,.38,4.18-12.42,11.37-33.75,11.6-34.26,.96-2.13,3.47-3.09,5.61-2.13,2.13,.96,3.09,3.47,2.13,5.61-.23,.5-11.3,20.11-17.75,31.51,.61,.34,1.19,.73,1.72,1.21,0,0,10.78-13.55,11.85-14.51,1.74-1.56,4.43-1.43,5.99,.31,1.56,1.74,1.42,4.42-.31,5.99-1.07,.97-15.72,10.37-15.72,10.37,.46,.75,.8,1.54,1.04,2.36,0,0,26.81-9.35,28.41-9.71,1.49-.33,3.05,.17,4.07,1.31,.49,.54,.83,1.21,.98,1.92,.5,2.28-.94,4.55-3.23,5.06-1.6,.35-29.88,3.29-29.88,3.29,.12,1.45-.07,2.91-.58,4.28,0,0,22.03,11.16,23.04,11.8,.32,.21,.62,.46,.87,.74,1.27,1.41,1.45,3.51,.42,5.12-.61,.96-1.56,1.62-2.66,1.86-1.11,.24-2.24,.04-3.2-.57-1.01-.64-20.71-15.5-20.71-15.5-.11,.11-.22,.23-.34,.34-.32,.28-.65,.53-.99,.77,7.1,11.36,18.89,30.21,19.14,30.7,1.06,2.08,.24,4.65-1.84,5.71Zm-18.12-39.2c2.87-2.59,3.1-7.03,.52-9.9-2.59-2.87-7.03-3.11-9.9-.52-2.87,2.59-3.11,7.03-.52,9.91,2.59,2.87,7.03,3.1,9.9,.51Z"/></g><g><path class="cls-5" d="M-77.08,219.09c-2.3-3.97-.95-9.08,3.03-11.38,.92-.53,24.68-9.59,48.69-20.45-.75-1.51-1.32-3.1-1.65-4.74,0,0-87.74,5.72-90.4,5.72-2.22,0-4.31-.87-5.89-2.44-1.58-1.58-2.44-3.66-2.44-5.89,0-2.23,.87-4.32,2.44-5.89,1.57-1.57,3.67-2.44,5.89-2.44,2.64,0,90.22,4.46,90.22,4.46,.29-2.04,.9-4.05,1.85-5.93,0,0-36.16-28.4-37.88-29.93-1.66-1.48-2.65-3.51-2.78-5.73-.13-2.22,.61-4.36,2.09-6.02,.11-.12,.22-.25,.34-.36,3.11-3.11,8.13-3.25,11.42-.33,1.7,1.52,32.13,35.93,32.13,35.93,1.35-1.05,2.8-1.9,4.33-2.54,0,0-26.27-71.15-27.11-74.23-.78-2.88,.04-5.97,2.15-8.08,1.02-1.02,2.3-1.76,3.7-2.14,2.15-.58,4.39-.3,6.32,.81,1.93,1.11,3.32,2.9,3.9,5.04,.83,3.08,14.71,77.48,14.71,77.48,.8-.16,1.61-.24,2.42-.3-2.46-21.9-6.13-54.69-6.13-56.33,0-4.59,3.73-8.33,8.33-8.33S.93,98.77,.93,103.36c0,1.65-3.69,34.66-6.15,56.56,.36,.06,.72,.1,1.08,.18,0,0,22.88-69.13,23.92-71.64,.42-1.02,1.03-1.94,1.81-2.72,2.39-2.39,5.94-3.1,9.06-1.81,2.06,.85,3.66,2.44,4.52,4.5,.86,2.06,.86,4.32,.01,6.38-1.04,2.52-33.67,67.55-33.67,67.55,1.32,.79,2.57,1.73,3.71,2.87,.31,.31,.59,.64,.87,.96,0,0,43.5-36.26,45.91-37.88,3.8-2.57,8.99-1.55,11.56,2.25,2.22,3.3,1.8,7.73-1.01,10.54-.38,.38-.79,.72-1.24,1.02-2.41,1.62-52.39,28.36-52.39,28.36,1.04,2.18,1.65,4.52,1.82,6.88,0,0,78.48-5.7,81.66-5.7,2.22,0,4.32,.87,5.89,2.44,1.58,1.58,2.44,3.66,2.44,5.89,0,2.23-.87,4.32-2.44,5.89-1.57,1.57-3.67,2.44-5.89,2.44-3.19,0-81.78-7.11-81.78-7.11-.12,.94-.33,1.88-.59,2.8,24.77,6.92,67.33,18.84,68.35,19.23,4.28,1.66,6.42,6.5,4.76,10.78-1.66,4.28-6.49,6.41-10.78,4.75-1.01-.39-40.58-20.1-63.58-31.57-.6,1.22-1.3,2.41-2.19,3.5,0,0,36.37,28.53,38.37,30.53,3.25,3.25,3.25,8.53,0,11.78-3.24,3.25-8.53,3.24-11.78,0-2-2.01-30.66-38.54-30.66-38.54-1.42,.97-2.94,1.73-4.52,2.28,0,0,22.62,56.17,23.48,59.27,.8,2.88-.03,5.99-2.14,8.11-1.01,1.01-2.28,1.75-3.67,2.13-4.43,1.22-9.02-1.38-10.24-5.81-.86-3.1-11.04-62.83-11.04-62.83-2.83,.39-5.72,.17-8.46-.7,0,0-29.76,62.45-30.92,64.49-.37,.66-.83,1.26-1.36,1.79-2.63,2.63-6.74,3.2-9.99,1.35-1.93-1.09-3.33-2.88-3.92-5.02-.59-2.14-.31-4.39,.79-6.33,1.15-2.04,38.4-60.32,38.4-60.32-.24-.21-.48-.41-.7-.64-.59-.59-1.11-1.22-1.61-1.87-21.54,15.09-41.36,31.21-42.28,31.75-3.98,2.3-9.08,.95-11.39-3.03Zm59.05-30.63c5.37,5.37,14.1,5.37,19.46,0,5.37-5.37,5.37-14.1,0-19.47-5.37-5.37-14.1-5.37-19.47,0-5.36,5.36-5.37,14.1,0,19.47Z"/><path class="cls-4" d="M102.37,273.84c-2.89,1.99-6.86,1.26-8.86-1.64-.46-.67-16.51-29.86-26.21-47.52-1.11,.66-2.29,1.19-3.51,1.54,0,0,6.93,32.68,7.09,34.7,.13,1.7-.41,3.34-1.51,4.63-1.11,1.29-2.65,2.08-4.34,2.21-1.7,.13-3.34-.4-4.63-1.51-1.29-1.1-2.07-2.65-2.21-4.34-.15-2.01,.69-35.16,.69-35.16-1.58-.1-3.14-.45-4.63-1.06,0,0-19.51,29.25-20.57,30.65-1.03,1.36-2.52,2.23-4.21,2.46-1.69,.23-3.36-.21-4.71-1.24-.1-.08-.2-.15-.3-.24-2.55-2.19-2.96-6-.93-8.69,1.06-1.39,25.48-26.62,25.48-26.62-.88-.96-1.61-2.02-2.19-3.15,0,0-52.68,24.24-54.98,25.06-2.15,.77-4.55,.32-6.29-1.16-.84-.72-1.48-1.65-1.85-2.69-.57-1.6-.49-3.33,.24-4.87,.73-1.54,2.01-2.7,3.61-3.27,2.29-.82,58.18-15.8,58.18-15.8-.17-.6-.28-1.21-.37-1.83-16.54,3.17-41.32,7.91-42.58,8.01-3.5,.27-6.57-2.35-6.84-5.85-.27-3.5,2.35-6.57,5.85-6.84,1.25-.1,26.64,.76,43.48,1.34,.03-.28,.04-.55,.08-.83,0,0-28.27-5.02-30.25-5.66-.81-.26-1.54-.67-2.18-1.22-1.96-1.68-2.71-4.35-1.92-6.8,.52-1.62,1.65-2.94,3.16-3.71,1.52-.78,3.24-.91,4.86-.39,1.98,.64,27.71,13.34,27.71,13.34,.53-1.05,1.17-2.06,1.96-2.99,.22-.26,.46-.49,.68-.72,0,0-30.21-31.01-31.59-32.75-2.18-2.75-1.72-6.76,1.04-8.95,2.38-1.88,5.78-1.83,8.09,.15,.31,.27,.6,.56,.85,.88,1.38,1.74,24.72,38.25,24.72,38.25,1.6-.92,3.34-1.53,5.14-1.79,0,0-7.26-37.17-7.45-39.59-.13-1.7,.4-3.34,1.51-4.63,1.11-1.29,2.65-2.08,4.34-2.21,1.7-.13,3.34,.4,4.63,1.51,1.29,1.1,2.08,2.65,2.21,4.34,.19,2.43-2.31,40.44-2.31,40.44,.73,.04,1.45,.14,2.17,.29,3.81-19.29,10.37-52.44,10.61-53.24,1.02-3.36,4.57-5.28,7.93-4.27,3.36,1.01,5.27,4.57,4.26,7.93-.24,.79-12.92,32.12-20.3,50.34,.97,.39,1.92,.85,2.8,1.46,0,0,13.42-22.25,14.82-23.89,2.28-2.67,6.31-2.98,8.98-.7,2.67,2.28,2.98,6.31,.7,8.98-1.41,1.65-21.38,18.49-21.38,18.49,.83,1.03,1.49,2.14,2,3.31,0,0,38.08-19.13,40.39-19.96,2.15-.78,4.57-.33,6.31,1.15,.83,.71,1.47,1.63,1.84,2.67,1.19,3.3-.52,6.96-3.82,8.15-2.31,.84-43.84,10.69-43.84,10.69,.47,2.13,.47,4.35-.03,6.49,0,0,34.95,12.33,36.57,13.09,.52,.25,1.01,.56,1.44,.93,2.16,1.85,2.83,4.95,1.62,7.53-.72,1.54-2,2.71-3.6,3.29-1.6,.58-3.33,.5-4.87-.22-1.63-.76-33.84-19.04-33.84-19.04-.14,.19-.29,.39-.45,.57-.42,.48-.87,.92-1.33,1.33,12.78,15.53,33.97,41.29,34.44,41.96,1.99,2.9,1.26,6.87-1.63,8.86Zm-34.58-54.81c3.77-4.41,3.25-11.06-1.15-14.83-4.41-3.77-11.07-3.26-14.84,1.15-3.78,4.41-3.26,11.07,1.15,14.84,4.41,3.77,11.06,3.25,14.84-1.16Z"/><path class="cls-6" d="M18.17,138.81c-2.08,1.06-4.64,.24-5.71-1.84-.24-.48-8.33-21.15-13.22-33.66-.79,.34-1.62,.59-2.45,.71,0,0,1.76,22.19,1.69,23.54-.06,1.13-.56,2.17-1.4,2.93-.84,.76-1.93,1.14-3.06,1.08-1.13-.06-2.17-.55-2.93-1.4-.76-.84-1.14-1.93-1.08-3.06,.07-1.34,3.49-23.17,3.49-23.17-1.03-.2-2.04-.57-2.97-1.1,0,0-15.41,17.64-16.23,18.48-.8,.81-1.86,1.25-2.99,1.26-1.13,0-2.2-.43-3.01-1.22-.06-.06-.12-.12-.17-.18-1.5-1.66-1.44-4.22,.14-5.82,.82-.83,19.13-15.39,19.13-15.39-.5-.71-.89-1.47-1.17-2.27,0,0-36.89,11.47-38.48,11.82-1.48,.32-3.04-.18-4.05-1.31-.49-.55-.83-1.22-.99-1.94-.24-1.11-.03-2.24,.58-3.2,.61-.95,1.56-1.61,2.67-1.85,1.59-.34,39.8-5.42,39.8-5.42-.06-.41-.08-.82-.09-1.24-11.21,.67-27.98,1.66-28.82,1.62-2.34-.12-4.14-2.12-4.02-4.46,.12-2.34,2.12-4.14,4.46-4.02,.84,.04,17.53,2.8,28.61,4.63,.04-.18,.07-.36,.12-.54,0,0-18.25-5.75-19.5-6.35-.51-.24-.96-.58-1.33-.99-1.15-1.28-1.42-3.11-.68-4.66,.49-1.02,1.34-1.8,2.41-2.18,1.07-.38,2.22-.32,3.24,.16,1.25,.59,17.16,11.2,17.16,11.2,.44-.65,.95-1.26,1.56-1.81,.17-.15,.34-.28,.51-.42,0,0-17.29-23.09-18.05-24.36-1.2-2-.55-4.62,1.46-5.82,1.74-1.04,3.98-.71,5.33,.79,.18,.2,.35,.42,.49,.66,.76,1.27,13.04,27.41,13.04,27.41,1.14-.47,2.34-.72,3.55-.74,0,0-1.59-25.18-1.51-26.8,.06-1.13,.56-2.17,1.4-2.93,.84-.76,1.93-1.15,3.06-1.08,1.13,.06,2.17,.55,2.93,1.4,.76,.84,1.14,1.93,1.09,3.06-.08,1.62-5.01,26.52-5.01,26.52,.48,.09,.94,.22,1.41,.38,4.18-12.42,11.37-33.75,11.6-34.26,.96-2.13,3.47-3.09,5.61-2.13,2.13,.96,3.09,3.47,2.13,5.61-.23,.5-11.3,20.11-17.75,31.51,.61,.34,1.19,.73,1.72,1.21,0,0,10.78-13.55,11.85-14.51,1.74-1.56,4.43-1.43,5.99,.31,1.56,1.74,1.42,4.42-.31,5.99-1.07,.97-15.72,10.37-15.72,10.37,.46,.75,.8,1.54,1.04,2.36,0,0,26.81-9.35,28.41-9.71,1.49-.33,3.05,.17,4.07,1.31,.49,.54,.83,1.21,.98,1.92,.5,2.28-.94,4.55-3.23,5.06-1.6,.35-29.88,3.29-29.88,3.29,.12,1.45-.07,2.91-.58,4.28,0,0,22.03,11.16,23.04,11.8,.32,.21,.62,.46,.87,.74,1.27,1.41,1.45,3.51,.42,5.12-.61,.95-1.56,1.62-2.66,1.86-1.11,.24-2.24,.04-3.2-.57-1.01-.64-20.71-15.5-20.71-15.5-.11,.11-.22,.23-.34,.34-.32,.28-.65,.53-.99,.77,7.1,11.36,18.89,30.21,19.14,30.7,1.06,2.08,.24,4.65-1.84,5.71ZM.05,99.62c2.87-2.59,3.1-7.03,.52-9.9-2.59-2.87-7.03-3.11-9.9-.52-2.87,2.59-3.11,7.03-.52,9.91,2.59,2.87,7.03,3.1,9.9,.51Z"/></g><g><path class="cls-7" d="M312.57,37.89c-1.04,2.91-4.25,4.42-7.17,3.38-.67-.24-16.58-8.97-32.58-16.6-.45,1.04-1.02,2.03-1.72,2.9,0,0,46.42,49.04,47.57,50.41,.96,1.14,1.42,2.59,1.3,4.08-.13,1.5-.83,2.84-1.97,3.81-1.15,.96-2.6,1.43-4.09,1.3-1.49-.13-2.84-.83-3.81-1.97-1.14-1.36-42.26-54.73-42.26-54.73-1.18,.74-2.47,1.29-3.85,1.62,0,0,1.09,30.92,1.05,32.47-.04,1.5-.66,2.89-1.75,3.92-1.08,1.03-2.5,1.57-4,1.54-.11,0-.22,0-.33-.02-2.95-.25-5.2-2.77-5.13-5.73,.04-1.54,4.53-32.11,4.53-32.11-1.12-.24-2.19-.61-3.18-1.12,0,0-25.19,44.38-26.41,46.15-1.14,1.65-3.09,2.57-5.09,2.4-.97-.08-1.9-.42-2.71-.97-1.23-.85-2.06-2.13-2.33-3.6-.27-1.47,.05-2.96,.9-4.19,1.22-1.76,33.46-41.18,33.46-41.18-.42-.34-.82-.72-1.2-1.12-10.19,10.77-25.46,26.88-26.31,27.59-2.36,1.99-5.9,1.7-7.9-.67-1.99-2.36-1.69-5.9,.67-7.89,.85-.71,19.42-13.14,31.75-21.38-.12-.21-.26-.42-.37-.63,0,0-45.47,18.23-47.22,18.79-.71,.23-1.44,.31-2.18,.25-2.26-.19-4.17-1.71-4.86-3.87-.46-1.42-.33-2.94,.35-4.27,.69-1.33,1.85-2.32,3.27-2.77,1.74-.56,49.34-11.99,49.34-11.99-.17-1.02-.22-2.07-.13-3.15,.03-.29,.07-.58,.12-.87,0,0-37.52-6.63-39.4-7.17-2.97-.84-4.7-3.95-3.86-6.92,.73-2.57,3.19-4.28,5.86-4.05,.36,.03,.72,.09,1.06,.19,1.88,.54,37.31,14.63,37.31,14.63,.67-1.48,1.61-2.81,2.75-3.92,0,0-44.09-46.31-45.48-47.95-.97-1.14-1.43-2.6-1.3-4.09,.13-1.49,.83-2.84,1.97-3.81,1.15-.96,2.6-1.43,4.09-1.3,1.49,.13,2.84,.83,3.81,1.97,1.39,1.64,38.94,53.56,38.94,53.56,.54-.35,1.11-.64,1.69-.91-7.19-15.74-19.53-42.79-19.76-43.49-1-2.92,.56-6.12,3.48-7.12,2.92-1,6.12,.55,7.12,3.48,.24,.69,7.27,29.59,11.36,46.4,.89-.22,1.8-.38,2.75-.4,0,0-1.11-31.08-.95-32.98,.26-3.08,2.98-5.37,6.06-5.11,3.08,.26,5.37,2.98,5.11,6.06-.16,1.9-6.51,32.49-6.51,32.49,1.12,.31,2.16,.76,3.13,1.34,0,0,26.37-46.34,27.59-48.12,1.14-1.66,3.09-2.59,5.1-2.42,.96,.08,1.89,.41,2.69,.96,2.55,1.75,3.2,5.24,1.46,7.79-1.22,1.79-34.82,43.27-34.82,43.27,1.43,1.28,2.57,2.87,3.31,4.65,0,0,45.03-11.79,46.58-12.08,.5-.09,1.01-.12,1.51-.07,2.5,.21,4.57,2.08,5.03,4.55,.28,1.47-.04,2.96-.88,4.2-.85,1.23-2.12,2.06-3.59,2.34-1.55,.29-47.68,6.42-47.68,6.42,0,.21,0,.42-.03,.64-.05,.56-.15,1.1-.26,1.64,17.11,4.53,34.93,8.16,35.61,8.4,2.91,1.05,4.43,4.26,3.38,7.17Zm-42.31-17.51c.43-5.09-3.36-9.58-8.45-10.01-5.09-.43-9.58,3.36-10.01,8.45-.43,5.09,3.36,9.58,8.45,10.01,5.09,.43,9.58-3.36,10.01-8.45Z"/><path class="cls-5" d="M257.13,28.91c-2.3-3.97-.95-9.08,3.03-11.38,.92-.53,24.68-9.59,48.69-20.45-.75-1.51-1.32-3.1-1.65-4.74,0,0-87.74,5.72-90.4,5.72-2.22,0-4.31-.87-5.89-2.44-1.58-1.58-2.44-3.66-2.44-5.89,0-2.23,.87-4.32,2.44-5.89,1.57-1.57,3.67-2.44,5.89-2.44,2.64,0,90.22,4.46,90.22,4.46,.29-2.04,.9-4.05,1.85-5.93,0,0-36.16-28.4-37.88-29.93-1.66-1.48-2.65-3.51-2.78-5.73-.13-2.22,.61-4.36,2.09-6.02,.11-.12,.22-.25,.34-.36,3.11-3.11,8.13-3.25,11.42-.33,1.7,1.52,32.13,35.93,32.13,35.93,1.35-1.05,2.8-1.9,4.33-2.54,0,0-26.27-71.15-27.11-74.23-.78-2.88,.04-5.97,2.15-8.08,1.02-1.02,2.3-1.76,3.7-2.14,2.15-.58,4.39-.3,6.32,.81,1.93,1.11,3.32,2.9,3.9,5.04,.83,3.08,14.71,77.48,14.71,77.48,.8-.16,1.61-.24,2.42-.3-2.46-21.9-6.13-54.69-6.13-56.33,0-4.59,3.73-8.33,8.33-8.33s8.33,3.74,8.33,8.33c0,1.65-3.69,34.66-6.15,56.56,.36,.06,.72,.1,1.08,.18,0,0,22.88-69.13,23.92-71.64,.42-1.02,1.03-1.94,1.81-2.72,2.39-2.39,5.94-3.1,9.06-1.81,2.06,.85,3.66,2.44,4.52,4.5,.86,2.06,.86,4.32,.01,6.38-1.04,2.52-33.67,67.55-33.67,67.55,1.32,.79,2.57,1.73,3.71,2.87,.31,.31,.59,.64,.87,.96,0,0,43.5-36.26,45.91-37.88,3.8-2.57,8.99-1.55,11.56,2.25,2.22,3.3,1.8,7.73-1.01,10.54-.38,.38-.79,.72-1.24,1.02-2.41,1.62-52.39,28.36-52.39,28.36,1.04,2.18,1.65,4.52,1.82,6.88,0,0,78.48-5.7,81.66-5.7,2.22,0,4.32,.87,5.89,2.44,1.58,1.58,2.44,3.66,2.44,5.89,0,2.23-.87,4.32-2.44,5.89-1.57,1.57-3.67,2.44-5.89,2.44-3.19,0-81.78-7.11-81.78-7.11-.12,.94-.33,1.88-.59,2.8,24.77,6.92,67.33,18.84,68.35,19.23,4.28,1.66,6.42,6.5,4.76,10.78-1.66,4.28-6.49,6.41-10.78,4.75-1.01-.39-40.58-20.1-63.58-31.57-.6,1.22-1.3,2.41-2.19,3.5,0,0,36.37,28.53,38.37,30.53,3.25,3.25,3.25,8.53,0,11.78-3.24,3.25-8.53,3.24-11.78,0-2-2.01-30.66-38.54-30.66-38.54-1.42,.97-2.94,1.73-4.52,2.28,0,0,22.62,56.17,23.48,59.27,.8,2.88-.03,5.99-2.14,8.11-1.01,1.01-2.28,1.75-3.67,2.13-4.43,1.22-9.02-1.38-10.24-5.81-.86-3.1-11.04-62.83-11.04-62.83-2.83,.39-5.72,.17-8.46-.7,0,0-29.76,62.45-30.92,64.49-.37,.66-.83,1.26-1.36,1.79-2.63,2.63-6.74,3.2-9.99,1.35-1.93-1.09-3.33-2.88-3.92-5.02-.59-2.14-.31-4.39,.79-6.33,1.15-2.04,38.4-60.32,38.4-60.32-.24-.21-.48-.41-.7-.64-.59-.59-1.11-1.22-1.61-1.87-21.54,15.09-41.36,31.21-42.28,31.75-3.98,2.3-9.08,.95-11.39-3.03ZM316.18-1.72c5.37,5.37,14.1,5.37,19.46,0,5.37-5.37,5.37-14.1,0-19.47-5.37-5.37-14.1-5.37-19.47,0-5.36,5.36-5.37,14.1,0,19.47Z"/><path class="cls-4" d="M436.58,83.66c-2.89,1.99-6.86,1.26-8.86-1.64-.46-.67-16.51-29.86-26.21-47.52-1.11,.67-2.29,1.19-3.51,1.54,0,0,6.93,32.68,7.09,34.7,.13,1.7-.41,3.34-1.51,4.63-1.11,1.29-2.65,2.08-4.34,2.21-1.7,.13-3.34-.4-4.63-1.51-1.29-1.1-2.07-2.65-2.21-4.34-.15-2.01,.69-35.16,.69-35.16-1.58-.1-3.14-.45-4.63-1.06,0,0-19.51,29.25-20.57,30.65-1.03,1.36-2.52,2.23-4.21,2.46-1.69,.23-3.36-.21-4.71-1.24-.1-.08-.2-.15-.3-.24-2.55-2.19-2.96-6-.93-8.69,1.06-1.39,25.48-26.62,25.48-26.62-.88-.96-1.61-2.02-2.19-3.15,0,0-52.68,24.24-54.98,25.06-2.15,.77-4.55,.32-6.29-1.16-.84-.72-1.48-1.65-1.85-2.69-.57-1.6-.49-3.33,.24-4.87,.73-1.54,2.01-2.7,3.61-3.27,2.29-.82,58.18-15.8,58.18-15.8-.17-.6-.28-1.21-.37-1.83-16.54,3.17-41.32,7.91-42.58,8.01-3.5,.27-6.57-2.35-6.84-5.85-.27-3.5,2.35-6.57,5.85-6.84,1.25-.1,26.64,.76,43.48,1.34,.03-.28,.04-.55,.08-.83,0,0-28.27-5.02-30.25-5.66-.81-.26-1.54-.67-2.18-1.22-1.96-1.68-2.71-4.35-1.92-6.8,.52-1.62,1.65-2.94,3.16-3.71,1.52-.78,3.24-.91,4.86-.39,1.98,.64,27.71,13.34,27.71,13.34,.53-1.05,1.17-2.06,1.96-2.99,.22-.26,.46-.49,.68-.72,0,0-30.21-31.01-31.59-32.75-2.18-2.75-1.72-6.76,1.04-8.95,2.38-1.88,5.78-1.83,8.09,.15,.31,.27,.6,.56,.85,.88,1.38,1.74,24.72,38.25,24.72,38.25,1.6-.92,3.34-1.53,5.14-1.79,0,0-7.26-37.16-7.45-39.59-.13-1.7,.4-3.34,1.51-4.63,1.11-1.29,2.65-2.08,4.34-2.21,1.7-.13,3.34,.4,4.63,1.51,1.29,1.1,2.08,2.65,2.21,4.34,.19,2.43-2.31,40.44-2.31,40.44,.73,.04,1.45,.14,2.17,.29,3.81-19.29,10.37-52.44,10.61-53.24,1.02-3.36,4.57-5.28,7.93-4.27,3.36,1.01,5.27,4.57,4.26,7.93-.24,.79-12.92,32.12-20.3,50.34,.97,.39,1.92,.85,2.8,1.46,0,0,13.42-22.25,14.82-23.89,2.28-2.67,6.31-2.98,8.98-.7,2.67,2.28,2.98,6.31,.7,8.98-1.41,1.65-21.38,18.49-21.38,18.49,.83,1.03,1.49,2.14,2,3.31,0,0,38.08-19.13,40.39-19.96,2.15-.78,4.57-.33,6.31,1.15,.83,.71,1.47,1.63,1.84,2.67,1.19,3.3-.52,6.96-3.82,8.15-2.31,.84-43.84,10.69-43.84,10.69,.47,2.13,.47,4.35-.03,6.49,0,0,34.95,12.33,36.57,13.09,.52,.25,1.01,.56,1.44,.93,2.16,1.85,2.83,4.95,1.62,7.53-.72,1.54-2,2.71-3.6,3.29-1.6,.58-3.33,.5-4.87-.22-1.63-.76-33.84-19.04-33.84-19.04-.14,.19-.29,.39-.45,.57-.42,.48-.87,.92-1.33,1.33,12.78,15.53,33.97,41.29,34.44,41.96,1.99,2.9,1.26,6.87-1.63,8.86Zm-34.58-54.81c3.77-4.41,3.25-11.06-1.15-14.83-4.41-3.77-11.07-3.26-14.84,1.15-3.78,4.41-3.26,11.07,1.15,14.84,4.41,3.77,11.06,3.25,14.84-1.16Z"/></g><g><path class="cls-7" d="M145.47,132.98c-1.04,2.91-4.25,4.42-7.17,3.38-.67-.24-16.58-8.97-32.58-16.6-.45,1.04-1.02,2.03-1.72,2.9,0,0,46.42,49.04,47.57,50.41,.96,1.14,1.42,2.59,1.3,4.08-.13,1.5-.83,2.84-1.97,3.81-1.15,.96-2.6,1.43-4.09,1.3-1.49-.13-2.84-.83-3.81-1.97-1.14-1.36-42.26-54.73-42.26-54.73-1.18,.74-2.48,1.29-3.85,1.62,0,0,1.09,30.92,1.05,32.47-.04,1.5-.66,2.89-1.75,3.92-1.08,1.03-2.5,1.57-4,1.54-.11,0-.22,0-.33-.02-2.95-.25-5.2-2.77-5.13-5.73,.04-1.54,4.53-32.11,4.53-32.11-1.12-.24-2.19-.61-3.18-1.12,0,0-25.19,44.38-26.41,46.15-1.14,1.65-3.09,2.57-5.09,2.4-.97-.08-1.9-.42-2.71-.97-1.23-.85-2.06-2.13-2.33-3.6-.27-1.47,.05-2.96,.9-4.19,1.22-1.76,33.46-41.18,33.46-41.18-.43-.34-.82-.72-1.2-1.12-10.19,10.77-25.46,26.88-26.31,27.59-2.36,1.99-5.9,1.7-7.9-.67-1.99-2.36-1.69-5.9,.67-7.89,.85-.71,19.42-13.14,31.76-21.38-.12-.21-.26-.42-.37-.63,0,0-45.47,18.23-47.22,18.79-.71,.23-1.44,.31-2.18,.25-2.26-.19-4.17-1.71-4.86-3.87-.46-1.42-.33-2.94,.35-4.27,.69-1.33,1.85-2.32,3.27-2.77,1.74-.56,49.34-11.99,49.34-11.99-.16-1.02-.22-2.07-.13-3.15,.02-.29,.07-.58,.12-.87,0,0-37.52-6.63-39.4-7.17-2.97-.84-4.7-3.95-3.86-6.92,.73-2.57,3.19-4.28,5.86-4.05,.36,.03,.72,.09,1.07,.19,1.88,.54,37.31,14.63,37.31,14.63,.67-1.48,1.61-2.81,2.75-3.92,0,0-44.09-46.31-45.48-47.95-.97-1.14-1.43-2.6-1.3-4.09,.13-1.49,.83-2.84,1.97-3.81,1.15-.96,2.59-1.43,4.09-1.3,1.49,.13,2.84,.83,3.81,1.97,1.39,1.64,38.94,53.56,38.94,53.56,.54-.35,1.11-.64,1.69-.91-7.19-15.74-19.53-42.79-19.77-43.49-1-2.92,.56-6.12,3.48-7.12,2.92-1,6.12,.55,7.12,3.48,.24,.69,7.27,29.59,11.36,46.4,.89-.22,1.8-.38,2.75-.4,0,0-1.11-31.08-.95-32.98,.26-3.08,2.98-5.37,6.06-5.11,3.08,.26,5.37,2.98,5.11,6.06-.16,1.9-6.51,32.49-6.51,32.49,1.12,.31,2.16,.76,3.14,1.34,0,0,26.37-46.34,27.59-48.12,1.14-1.66,3.09-2.59,5.1-2.42,.96,.08,1.89,.41,2.69,.96,2.55,1.75,3.2,5.24,1.45,7.79-1.22,1.79-34.82,43.27-34.82,43.27,1.43,1.28,2.57,2.87,3.31,4.65,0,0,45.03-11.79,46.58-12.08,.5-.09,1.01-.12,1.51-.07,2.5,.21,4.57,2.08,5.03,4.55,.28,1.47-.04,2.96-.88,4.2-.85,1.23-2.12,2.06-3.59,2.34-1.55,.29-47.68,6.42-47.68,6.42,0,.21,0,.42-.02,.64-.05,.56-.15,1.1-.26,1.64,17.11,4.53,34.93,8.16,35.61,8.4,2.91,1.05,4.43,4.26,3.38,7.17Zm-42.31-17.51c.43-5.09-3.36-9.58-8.45-10.01-5.09-.43-9.58,3.36-10.01,8.45-.43,5.09,3.36,9.58,8.45,10.01,5.09,.43,9.58-3.36,10.01-8.45Z"/><path class="cls-5" d="M90.02,124c-2.3-3.97-.95-9.08,3.03-11.38,.92-.53,24.68-9.59,48.69-20.45-.75-1.51-1.32-3.1-1.65-4.74,0,0-87.74,5.72-90.4,5.72-2.22,0-4.31-.87-5.89-2.44-1.58-1.58-2.44-3.66-2.44-5.89,0-2.23,.87-4.32,2.44-5.89,1.57-1.57,3.67-2.44,5.89-2.44,2.64,0,90.22,4.46,90.22,4.46,.29-2.04,.9-4.05,1.85-5.93,0,0-36.16-28.4-37.88-29.93-1.66-1.48-2.65-3.51-2.78-5.73-.13-2.22,.61-4.36,2.09-6.02,.11-.12,.22-.25,.34-.36,3.11-3.11,8.13-3.25,11.42-.33,1.7,1.52,32.13,35.93,32.13,35.93,1.35-1.05,2.8-1.9,4.33-2.54,0,0-26.27-71.15-27.11-74.23-.78-2.88,.04-5.97,2.15-8.08,1.02-1.02,2.3-1.76,3.7-2.14,2.15-.58,4.39-.3,6.32,.81,1.93,1.11,3.32,2.9,3.9,5.04,.83,3.08,14.71,77.48,14.71,77.48,.8-.16,1.61-.24,2.42-.3-2.46-21.9-6.13-54.69-6.13-56.33,0-4.59,3.73-8.33,8.33-8.33s8.33,3.74,8.33,8.33c0,1.65-3.69,34.66-6.15,56.56,.36,.06,.72,.1,1.08,.18,0,0,22.88-69.13,23.92-71.64,.42-1.02,1.03-1.94,1.81-2.72,2.39-2.39,5.94-3.1,9.06-1.81,2.06,.85,3.66,2.44,4.52,4.5,.86,2.06,.86,4.32,.01,6.38-1.04,2.52-33.67,67.55-33.67,67.55,1.32,.79,2.57,1.73,3.71,2.87,.31,.31,.59,.64,.87,.96,0,0,43.5-36.26,45.91-37.88,3.8-2.57,8.99-1.55,11.56,2.25,2.22,3.3,1.8,7.73-1.01,10.54-.38,.38-.79,.72-1.24,1.02-2.41,1.62-52.39,28.36-52.39,28.36,1.04,2.18,1.65,4.52,1.82,6.88,0,0,78.48-5.7,81.66-5.7,2.22,0,4.32,.87,5.89,2.44,1.58,1.58,2.44,3.66,2.44,5.89,0,2.23-.87,4.32-2.44,5.89-1.57,1.57-3.67,2.44-5.89,2.44-3.19,0-81.78-7.11-81.78-7.11-.12,.94-.33,1.88-.59,2.8,24.77,6.92,67.33,18.84,68.35,19.23,4.28,1.66,6.42,6.5,4.76,10.78-1.66,4.28-6.49,6.41-10.78,4.75-1.01-.39-40.58-20.1-63.58-31.57-.6,1.22-1.3,2.41-2.19,3.5,0,0,36.38,28.53,38.37,30.53,3.25,3.25,3.25,8.53,0,11.78-3.24,3.25-8.53,3.24-11.78,0-2-2.01-30.66-38.54-30.66-38.54-1.42,.97-2.94,1.73-4.52,2.28,0,0,22.62,56.17,23.48,59.27,.8,2.88-.03,5.99-2.14,8.11-1.01,1.01-2.28,1.75-3.67,2.13-4.43,1.22-9.02-1.38-10.24-5.81-.86-3.1-11.04-62.83-11.04-62.83-2.83,.39-5.72,.17-8.46-.7,0,0-29.76,62.45-30.92,64.49-.37,.66-.83,1.26-1.36,1.79-2.63,2.63-6.74,3.2-9.99,1.35-1.93-1.09-3.33-2.88-3.92-5.02-.59-2.14-.31-4.39,.79-6.33,1.15-2.04,38.4-60.32,38.4-60.32-.24-.21-.48-.41-.7-.64-.59-.59-1.11-1.22-1.61-1.87-21.54,15.09-41.36,31.21-42.28,31.75-3.98,2.3-9.08,.95-11.39-3.03Zm59.05-30.63c5.37,5.37,14.1,5.37,19.46,0,5.37-5.37,5.37-14.1,0-19.47-5.37-5.37-14.1-5.37-19.47,0-5.36,5.36-5.37,14.1,0,19.47Z"/><path class="cls-4" d="M269.48,178.75c-2.89,1.99-6.86,1.26-8.86-1.64-.46-.67-16.51-29.86-26.21-47.52-1.11,.66-2.29,1.19-3.51,1.54,0,0,6.93,32.68,7.09,34.7,.13,1.7-.41,3.34-1.51,4.63-1.11,1.29-2.65,2.08-4.34,2.21-1.7,.13-3.34-.4-4.63-1.51-1.29-1.1-2.07-2.65-2.21-4.34-.15-2.01,.69-35.16,.69-35.16-1.58-.1-3.14-.45-4.63-1.06,0,0-19.51,29.25-20.57,30.65-1.03,1.36-2.52,2.23-4.21,2.46-1.69,.23-3.36-.21-4.71-1.24-.1-.08-.2-.15-.3-.24-2.55-2.19-2.96-6-.93-8.69,1.06-1.39,25.48-26.62,25.48-26.62-.88-.96-1.61-2.02-2.19-3.15,0,0-52.68,24.24-54.98,25.06-2.15,.77-4.55,.32-6.29-1.16-.84-.72-1.48-1.65-1.85-2.69-.57-1.6-.49-3.33,.24-4.87,.73-1.54,2.01-2.7,3.61-3.27,2.29-.82,58.18-15.8,58.18-15.8-.17-.6-.28-1.21-.37-1.83-16.54,3.17-41.32,7.91-42.58,8.01-3.5,.27-6.57-2.35-6.84-5.85-.27-3.5,2.35-6.57,5.85-6.84,1.25-.1,26.64,.76,43.48,1.34,.03-.28,.04-.55,.08-.83,0,0-28.27-5.02-30.25-5.66-.81-.26-1.54-.67-2.18-1.22-1.96-1.68-2.71-4.35-1.92-6.8,.52-1.62,1.65-2.94,3.16-3.71,1.52-.78,3.24-.91,4.86-.39,1.98,.64,27.71,13.34,27.71,13.34,.53-1.05,1.17-2.06,1.96-2.99,.22-.26,.45-.49,.68-.72,0,0-30.21-31.01-31.59-32.75-2.18-2.75-1.72-6.76,1.04-8.95,2.38-1.88,5.78-1.83,8.09,.15,.31,.27,.6,.56,.85,.88,1.38,1.74,24.72,38.25,24.72,38.25,1.6-.92,3.34-1.53,5.14-1.79,0,0-7.26-37.16-7.45-39.59-.13-1.7,.4-3.34,1.51-4.63,1.11-1.29,2.65-2.08,4.34-2.21,1.7-.13,3.34,.4,4.63,1.51,1.29,1.1,2.08,2.65,2.21,4.34,.19,2.43-2.31,40.44-2.31,40.44,.73,.04,1.45,.14,2.17,.29,3.81-19.29,10.37-52.44,10.61-53.24,1.02-3.36,4.57-5.28,7.93-4.27,3.36,1.01,5.27,4.57,4.26,7.93-.24,.79-12.92,32.12-20.3,50.34,.97,.39,1.92,.85,2.8,1.46,0,0,13.42-22.25,14.82-23.89,2.28-2.67,6.31-2.98,8.98-.7,2.67,2.28,2.98,6.31,.7,8.98-1.41,1.65-21.38,18.49-21.38,18.49,.83,1.03,1.49,2.14,2,3.31,0,0,38.08-19.13,40.39-19.96,2.15-.78,4.57-.33,6.31,1.15,.83,.71,1.47,1.63,1.84,2.67,1.19,3.3-.52,6.96-3.82,8.15-2.31,.84-43.84,10.69-43.84,10.69,.47,2.13,.47,4.35-.03,6.49,0,0,34.95,12.33,36.57,13.09,.52,.25,1.01,.56,1.44,.93,2.16,1.85,2.83,4.95,1.62,7.53-.72,1.54-2,2.71-3.6,3.29-1.6,.58-3.33,.5-4.87-.22-1.63-.76-33.84-19.04-33.84-19.04-.14,.19-.29,.39-.45,.57-.42,.48-.87,.92-1.33,1.33,12.78,15.53,33.97,41.29,34.44,41.96,1.99,2.9,1.26,6.87-1.63,8.86Zm-34.58-54.81c3.77-4.41,3.25-11.06-1.15-14.83-4.41-3.77-11.07-3.26-14.84,1.15-3.78,4.41-3.26,11.07,1.15,14.84,4.41,3.77,11.06,3.25,14.84-1.16Z"/><path class="cls-6" d="M185.28,43.72c-2.08,1.06-4.64,.24-5.71-1.84-.24-.48-8.33-21.15-13.22-33.66-.79,.34-1.62,.59-2.46,.71,0,0,1.76,22.19,1.69,23.54-.06,1.13-.56,2.17-1.4,2.93-.84,.76-1.93,1.14-3.06,1.08-1.13-.06-2.17-.55-2.93-1.4-.76-.84-1.14-1.93-1.08-3.06,.07-1.34,3.49-23.17,3.49-23.17-1.03-.2-2.04-.57-2.97-1.1,0,0-15.41,17.64-16.23,18.48-.8,.81-1.86,1.25-2.99,1.26-1.13,0-2.2-.43-3.01-1.22-.06-.06-.12-.12-.17-.18-1.5-1.67-1.44-4.22,.14-5.82,.82-.83,19.13-15.39,19.13-15.39-.5-.71-.89-1.47-1.17-2.27,0,0-36.89,11.47-38.48,11.82-1.48,.32-3.04-.18-4.05-1.31-.49-.55-.83-1.22-.99-1.94-.24-1.11-.03-2.24,.58-3.2,.61-.95,1.56-1.61,2.67-1.85,1.59-.34,39.8-5.42,39.8-5.42-.06-.41-.08-.82-.09-1.24-11.21,.67-27.98,1.66-28.82,1.62-2.34-.12-4.14-2.12-4.02-4.46,.12-2.34,2.12-4.14,4.46-4.02,.84,.04,17.53,2.8,28.61,4.63,.04-.18,.07-.36,.12-.54,0,0-18.25-5.75-19.5-6.35-.51-.24-.96-.58-1.33-.99-1.15-1.28-1.42-3.11-.68-4.66,.49-1.02,1.34-1.8,2.41-2.18,1.07-.38,2.22-.32,3.24,.16,1.25,.59,17.16,11.2,17.16,11.2,.44-.65,.95-1.26,1.56-1.81,.17-.15,.34-.28,.51-.42,0,0-17.29-23.09-18.05-24.36-1.2-2-.55-4.62,1.46-5.82,1.74-1.04,3.98-.71,5.33,.79,.18,.2,.35,.42,.49,.66,.76,1.27,13.04,27.41,13.04,27.41,1.14-.47,2.34-.72,3.55-.74,0,0-1.59-25.18-1.51-26.8,.06-1.13,.56-2.17,1.4-2.93,.84-.76,1.93-1.15,3.06-1.09,1.13,.06,2.17,.55,2.93,1.4,.76,.84,1.14,1.93,1.09,3.06-.08,1.62-5.01,26.52-5.01,26.52,.48,.09,.94,.22,1.41,.38,4.18-12.42,11.37-33.75,11.6-34.26,.96-2.13,3.47-3.09,5.61-2.13,2.13,.96,3.09,3.47,2.13,5.61-.23,.5-11.3,20.11-17.75,31.51,.61,.34,1.19,.73,1.72,1.21,0,0,10.78-13.55,11.85-14.51,1.74-1.56,4.43-1.43,5.99,.31,1.56,1.74,1.42,4.42-.31,5.99-1.07,.97-15.72,10.37-15.72,10.37,.46,.75,.8,1.54,1.04,2.36,0,0,26.81-9.35,28.41-9.71,1.49-.33,3.05,.17,4.07,1.31,.49,.54,.83,1.21,.98,1.92,.5,2.28-.94,4.55-3.23,5.06-1.6,.35-29.88,3.29-29.88,3.29,.12,1.45-.07,2.91-.58,4.28,0,0,22.03,11.16,23.04,11.8,.32,.21,.62,.46,.87,.74,1.27,1.41,1.45,3.51,.42,5.12-.61,.96-1.56,1.62-2.66,1.86-1.11,.24-2.24,.04-3.2-.57-1.01-.64-20.71-15.5-20.71-15.5-.11,.11-.22,.23-.34,.34-.32,.28-.65,.53-.99,.77,7.1,11.36,18.89,30.21,19.14,30.7,1.06,2.08,.24,4.65-1.84,5.71ZM167.16,4.53c2.87-2.59,3.1-7.03,.52-9.9-2.59-2.87-7.03-3.11-9.9-.52-2.87,2.59-3.11,7.03-.52,9.91,2.59,2.87,7.03,3.1,9.9,.51Z"/></g><g><path class="cls-5" d="M-77.08,28.91c-2.3-3.97-.95-9.08,3.03-11.38,.92-.53,24.68-9.59,48.69-20.45-.75-1.51-1.32-3.1-1.65-4.74,0,0-87.74,5.72-90.4,5.72-2.22,0-4.31-.87-5.89-2.44-1.58-1.58-2.44-3.66-2.44-5.89,0-2.23,.87-4.32,2.44-5.89,1.57-1.57,3.67-2.44,5.89-2.44,2.64,0,90.22,4.46,90.22,4.46,.29-2.04,.9-4.05,1.85-5.93,0,0-36.16-28.4-37.88-29.93-1.66-1.48-2.65-3.51-2.78-5.73-.13-2.22,.61-4.36,2.09-6.02,.11-.12,.22-.25,.34-.36,3.11-3.11,8.13-3.25,11.42-.33,1.7,1.52,32.13,35.93,32.13,35.93,1.35-1.05,2.8-1.9,4.33-2.54,0,0-26.27-71.15-27.11-74.23-.78-2.88,.04-5.97,2.15-8.08,1.02-1.02,2.3-1.76,3.7-2.14,2.15-.58,4.39-.3,6.32,.81,1.93,1.11,3.32,2.9,3.9,5.04,.83,3.08,14.71,77.48,14.71,77.48,.8-.16,1.61-.24,2.42-.3-2.46-21.9-6.13-54.69-6.13-56.33,0-4.59,3.73-8.33,8.33-8.33S.93-91.41,.93-86.82c0,1.65-3.69,34.66-6.15,56.56,.36,.06,.72,.1,1.08,.18,0,0,22.88-69.13,23.92-71.64,.42-1.02,1.03-1.94,1.81-2.72,2.39-2.39,5.94-3.1,9.06-1.81,2.06,.85,3.66,2.44,4.52,4.5,.86,2.06,.86,4.32,.01,6.38C34.14-92.86,1.5-27.83,1.5-27.83c1.32,.79,2.57,1.73,3.71,2.87,.31,.31,.59,.64,.87,.96,0,0,43.5-36.26,45.91-37.88,3.8-2.57,8.99-1.55,11.56,2.25,2.22,3.3,1.8,7.73-1.01,10.54-.38,.38-.79,.72-1.24,1.02-2.41,1.62-52.39,28.36-52.39,28.36,1.04,2.18,1.65,4.52,1.82,6.88,0,0,78.48-5.7,81.66-5.7,2.22,0,4.32,.87,5.89,2.44,1.58,1.58,2.44,3.66,2.44,5.89,0,2.23-.87,4.32-2.44,5.89-1.57,1.57-3.67,2.44-5.89,2.44-3.19,0-81.78-7.11-81.78-7.11-.12,.94-.33,1.88-.59,2.8C34.78,.75,77.35,12.66,78.36,13.05c4.28,1.66,6.42,6.5,4.76,10.78-1.66,4.28-6.49,6.41-10.78,4.75-1.01-.39-40.58-20.1-63.58-31.57-.6,1.22-1.3,2.41-2.19,3.5,0,0,36.37,28.53,38.37,30.53,3.25,3.25,3.25,8.53,0,11.78-3.24,3.25-8.53,3.24-11.78,0C31.16,40.82,2.5,4.28,2.5,4.28c-1.42,.97-2.94,1.73-4.52,2.28,0,0,22.62,56.17,23.48,59.27,.8,2.88-.03,5.99-2.14,8.11-1.01,1.01-2.28,1.75-3.67,2.13-4.43,1.22-9.02-1.38-10.24-5.81C4.55,67.15-5.64,7.43-5.64,7.43c-2.83,.39-5.72,.17-8.46-.7,0,0-29.76,62.45-30.92,64.49-.37,.66-.83,1.26-1.36,1.79-2.63,2.63-6.74,3.2-9.99,1.35-1.93-1.09-3.33-2.88-3.92-5.02-.59-2.14-.31-4.39,.79-6.33C-58.35,60.96-21.1,2.69-21.1,2.69c-.24-.21-.48-.41-.7-.64-.59-.59-1.11-1.22-1.61-1.87-21.54,15.09-41.36,31.21-42.28,31.75-3.98,2.3-9.08,.95-11.39-3.03ZM-18.03-1.72C-12.67,3.64-3.93,3.64,1.43-1.72c5.37-5.37,5.37-14.1,0-19.47-5.37-5.37-14.1-5.37-19.47,0-5.36,5.36-5.37,14.1,0,19.47Z"/><path class="cls-4" d="M102.37,83.66c-2.89,1.99-6.86,1.26-8.86-1.64-.46-.67-16.51-29.86-26.21-47.52-1.11,.67-2.29,1.19-3.51,1.54,0,0,6.93,32.68,7.09,34.7,.13,1.7-.41,3.34-1.51,4.63-1.11,1.29-2.65,2.08-4.34,2.21-1.7,.13-3.34-.4-4.63-1.51-1.29-1.1-2.07-2.65-2.21-4.34-.15-2.01,.69-35.16,.69-35.16-1.58-.1-3.14-.45-4.63-1.06,0,0-19.51,29.25-20.57,30.65-1.03,1.36-2.52,2.23-4.21,2.46-1.69,.23-3.36-.21-4.71-1.24-.1-.08-.2-.15-.3-.24-2.55-2.19-2.96-6-.93-8.69,1.06-1.39,25.48-26.62,25.48-26.62-.88-.96-1.61-2.02-2.19-3.15,0,0-52.68,24.24-54.98,25.06-2.15,.77-4.55,.32-6.29-1.16-.84-.72-1.48-1.65-1.85-2.69-.57-1.6-.49-3.33,.24-4.87,.73-1.54,2.01-2.7,3.61-3.27,2.29-.82,58.18-15.8,58.18-15.8-.17-.6-.28-1.21-.37-1.83-16.54,3.17-41.32,7.91-42.58,8.01-3.5,.27-6.57-2.35-6.84-5.85-.27-3.5,2.35-6.57,5.85-6.84,1.25-.1,26.64,.76,43.48,1.34,.03-.28,.04-.55,.08-.83,0,0-28.27-5.02-30.25-5.66-.81-.26-1.54-.67-2.18-1.22-1.96-1.68-2.71-4.35-1.92-6.8,.52-1.62,1.65-2.94,3.16-3.71,1.52-.78,3.24-.91,4.86-.39,1.98,.64,27.71,13.34,27.71,13.34,.53-1.05,1.17-2.06,1.96-2.99,.22-.26,.46-.49,.68-.72,0,0-30.21-31.01-31.59-32.75-2.18-2.75-1.72-6.76,1.04-8.95,2.38-1.88,5.78-1.83,8.09,.15,.31,.27,.6,.56,.85,.88,1.38,1.74,24.72,38.25,24.72,38.25,1.6-.92,3.34-1.53,5.14-1.79,0,0-7.26-37.16-7.45-39.59-.13-1.7,.4-3.34,1.51-4.63,1.11-1.29,2.65-2.08,4.34-2.21,1.7-.13,3.34,.4,4.63,1.51,1.29,1.1,2.08,2.65,2.21,4.34,.19,2.43-2.31,40.44-2.31,40.44,.73,.04,1.45,.14,2.17,.29,3.81-19.29,10.37-52.44,10.61-53.24,1.02-3.36,4.57-5.28,7.93-4.27,3.36,1.01,5.27,4.57,4.26,7.93-.24,.79-12.92,32.12-20.3,50.34,.97,.39,1.92,.85,2.8,1.46,0,0,13.42-22.25,14.82-23.89,2.28-2.67,6.31-2.98,8.98-.7,2.67,2.28,2.98,6.31,.7,8.98-1.41,1.65-21.38,18.49-21.38,18.49,.83,1.03,1.49,2.14,2,3.31,0,0,38.08-19.13,40.39-19.96,2.15-.78,4.57-.33,6.31,1.15,.83,.71,1.47,1.63,1.84,2.67,1.19,3.3-.52,6.96-3.82,8.15-2.31,.84-43.84,10.69-43.84,10.69,.47,2.13,.47,4.35-.03,6.49,0,0,34.95,12.33,36.57,13.09,.52,.25,1.01,.56,1.44,.93,2.16,1.85,2.83,4.95,1.62,7.53-.72,1.54-2,2.71-3.6,3.29-1.6,.58-3.33,.5-4.87-.22-1.63-.76-33.84-19.04-33.84-19.04-.14,.19-.29,.39-.45,.57-.42,.48-.87,.92-1.33,1.33,12.78,15.53,33.97,41.29,34.44,41.96,1.99,2.9,1.26,6.87-1.63,8.86ZM67.79,28.85c3.77-4.41,3.25-11.06-1.15-14.83-4.41-3.77-11.07-3.26-14.84,1.15-3.78,4.41-3.26,11.07,1.15,14.84,4.41,3.77,11.06,3.25,14.84-1.16Z"/></g></g></pattern></defs><path class="cls-3" d="M239.05,128c0,20.75-5.73,40.19-15.67,56.82l-48.57-55.11,23.9,10.94-18.74-18.8,26.49,1.59-24.26-10.76,25.28-8.09-26.52-1.26,20.65-16.68-25.18,8.4,13.24-23.02-20.45,16.93,4.02-26.24-12.95,23.17-5.72-25.92-3.71,26.29-14.7-22.1,6.04,25.84-21.69-15.29,14.96,21.92-25.75-6.43,21.87,15.03-26.33,3.31,25.83,6.12-23.37,12.6,26.3-3.63-17.24,20.19,23.21-12.88-8.78,25.05,16.99-20.4,.87,26.53,8.47-25.15,10.39,24.42-1.18-26.51,.79,.81,29.49,79.24c-18.97,15.09-42.96,24.12-69.03,24.12-13.22,0-25.9-2.32-37.67-6.58,17.35-7.21,22.95-17.53,22.95-17.53-25.17,.4-39.95-25.97-39.95-25.97,18.37-19.58,11.18-46.35,11.18-46.35-21.17,9.19-38.75-3.99-38.75-3.99,6.79-17.98,0-33.56,0-33.56-4.16,9.86-17.52,15.8-28.74,19.15,2-59.49,51.01-107.27,110.98-107.27s111.05,49.82,111.05,111.05Z"/><circle class="cls-2" cx="128" cy="128" r="124.08"/></svg>